<svg version="1.2" xmlns="http://www.w3.org/2000/svg" viewBox="0 0 343 186" width="343" height="186">
	<title>Nouveau projet</title>
	<style>
		.s0 { fill: #ffffff } 
	</style>
	<path id="Calque 2" fill-rule="evenodd" class="s0" d="m67.4 1.2c1.7 0.8 1.8 1.1 0.6 1.8-1.2 0.6-1.1 0.9 0.7 1.4 1.3 0.3 2.3 1 2.3 1.6 0 0.6-0.7 0.8-1.5 0.5-0.8-0.3-1.5-0.1-1.5 0.5 0 0.6 0.6 1.3 1.2 1.6 1 0.5 0.9 0.9-0.2 1.5-1.2 0.7-1.2 0.9 0.4 0.9 1.1 0 1.6 0.3 1.3 0.7-0.4 0.5 0.3 1.4 1.6 2.2 1.8 1.1 2 1.5 0.7 2.2-1.1 0.7-0.9 0.9 3.5 1l-2.4 1.2c-2.4 1.2-2.3 1.2 2.5 3.4 4.8 2 4.8 2.1 2.4 3.1-1.5 0.6-3.2 0.6-4.3 0.1-0.9-0.5-1.7-0.7-1.7-0.4 0 0.3 0.4 1.6 1 3 0.5 1.4 0.8 2.5 0.5 2.5-0.3 0-1.4-0.5-2.5-1q-2-1-2 0c0 0.5 1.6 1.7 3.5 2.5 1.9 0.8 5.2 1.6 7.2 1.6 3.2 0.1 3.5 0.3 2.1 1.3-1 0.6-1.4 1.5-1 2 0.4 0.5-0.5 0.6-2.1 0.2-1.6-0.4-2.5-0.2-2.2 0.4 0.3 0.5 2.6 1.3 5.2 1.6 3.4 0.4 4.4 0.9 3.3 1.5-1.3 0.8-1.3 0.9 0 1 0.8 0-0.5 0.6-3 1.3-3.8 1-4.9 0.9-6.8-0.4-2.2-1.4-2.3-1.4-2 0.9 0.2 1.8 1.4 2.7 10.3 5.5l-3 1c-2.7 0.8-2.8 1-1 1.7 1.1 0.4 3.2 0.8 4.7 0.8 1.6 0.1 2.6 0.6 2.3 1.1-0.3 0.5 0.7 1 5 1.2l-2.5 0.7c-2.4 0.7-2.4 0.7-0.5 2 1.7 1 1 1.1-4.5 0.7-5.1-0.4-6.2-0.3-5.2 0.7 0.7 0.7 1.2 1.5 1.2 1.9 0 0.5-0.5 0.6-1 0.3-0.6-0.3-1 0-1 0.5 0 0.5 0.1 1 0.2 1 0.2 0 2.8 0.9 5.8 2 4.2 1.5 4.9 1.9 2.7 2-1.5 0-2.7 0.5-2.7 1 0 0.5 0.6 1.2 1.2 1.4 0.7 0.2-0.8 0.1-3.5-0.3-2.6-0.3-4.7-0.3-4.7 0.1 0 0.5 1.6 1.5 3.5 2.3 1.9 0.8 6.1 1.5 9.2 1.5 5.2 0 5.6-0.1 3.8-1.3-1.1-0.8-1.6-1.6-1-1.9 0.5-0.3 2.1-0.8 3.5-1.1 1.5-0.4 2.6-1.4 2.7-2.7 0.3-1.7 0-1.8-1.7-1-1.1 0.5-3.5 0.7-5.3 0.4-1.8-0.3-3.2-1.1-3.2-2 0-0.8 0.9-1.4 2-1.4 1.1 0 3.1-0.3 7-1.4l-2.3-0.5c-1.3-0.3-2.3-1.1-2.3-1.6 0-0.5 1.3-1.3 2.8-1.6 1.5-0.3 3.8-1.1 5-1.7 1.3-0.7 2.3-1.8 2.3-2.5 0.1-1-0.2-1-1.5 0-0.8 0.7-2.1 1-2.8 0.7-0.9-0.5-0.9-0.8 0.1-1.8 0.7-0.6 1.2-1.3 1.2-1.6 0-0.3-1.3-0.3-2.8-0.1-1.5 0.2-3-0.2-3.5-0.8-0.4-0.7 0-1.1 1-1.1 1 0 2.7-0.7 3.8-1.6 1.7-1.3 1.8-1.6 0.5-2.4-1.2-0.8-1.2-1 0.5-1.1 1.4 0 1.6-0.2 0.5-0.6-1.2-0.4-0.9-1 1.1-2.7 1.5-1.1 2.8-3 3-4.1 0.3-1.2-0.1-1.9-0.9-1.7-0.6 0.1-1.2-0.3-1.2-0.8 0-0.5 0.7-1.2 1.5-1.5 0.8-0.3 1.3-1 1-1.5-0.3-0.5 0.1-1.2 0.7-1.4 0.7-0.2 2 0 2.8 0.5 0.8 0.5 1.1 0.9 0.5 0.9-0.6-0.1-0.1 0.9 1 2.1 1.4 1.5 1.5 2.1 0.5 1.7-1-0.4-1.6 0.1-1.8 1.3-0.1 1.1 1 2.8 2.5 3.9 1.6 1.2 3.4 2.1 4 2 0.7 0 1.3 0.5 1.3 1 0 0.5-0.4 0.8-1 0.5-0.6-0.3-1.9-0.3-3 0-1.7 0.4-1.8 0.8-0.8 2 0.7 0.9 2.6 1.8 4.3 2.1 2.3 0.4 2.6 0.8 1.5 1.4-0.8 0.5-1.8 0.7-2.3 0.4-0.4-0.2-0.7 0.1-0.7 0.6q0 1-2 0c-1.6-0.8-2-0.7-2 0.5 0 0.8 0.4 1.5 1 1.5 0.6 0 0.8 0.5 0.5 1-0.3 0.5 0.4 1.2 1.5 1.5 1.1 0.3 2 1 2 1.5 0 0.5-0.9 1-2 1-1.1 0-1.8 0.5-1.5 1 0.3 0.5 1.6 1 3 1 1.4 0 3.2 0.7 4 1.5 0.9 0.9 2.7 1.4 4.7 1.1 2.8-0.3 3-0.2 1.6 0.8-1 0.6-1.4 1.5-1 2 0.4 0.5 0 0.6-1.1 0.3-0.9-0.4-2.4-0.5-3.2-0.2-0.8 0.3-1.3 1-1 1.5 0.3 0.5-0.5 0.9-1.8 0.8-1.2-0.1-2.8-0.6-3.5-1.2-1-0.8-1.3-0.7-1.3 0.4 0.1 0.8 1.1 2.4 2.3 3.4 1.4 1.2 4.4 2.2 7.3 2.5 4.1 0.4 4.8 0.7 3.8 1.8-0.6 0.7-1.8 1.3-2.5 1.3-0.9 0-0.9 0.3 0.2 0.9 1.3 0.7 1.2 1-0.5 1.5-1.1 0.4-2.8 0.4-3.8 0.1-0.9-0.3-1.7 0-1.7 0.5 0 0.6-0.9 0.7-2.3 0.3-2-0.7-2-0.6 0.5 2 1.6 1.5 3.8 3 5 3.3 1.3 0.3 1.9 0.8 1.5 1.2-0.5 0.4-1.3 0.8-1.8 0.9-0.5 0.2-1.5 0.3-2.2 0.3q-1.2 0 0.3 1c0.8 0.5 3.2 1 5.2 1 2.2 0 3.6 0.4 3.3 1-0.3 0.6 1.8 1 5.2 1 4.1 0 5.4 0.3 4.3 1-1.3 0.8-1.2 1 0.2 1 1 0 1.8 0.5 1.8 1 0 0.5-0.9 1-2 1-1.1 0-1.8 0.5-1.5 1 0.3 0.6-1.4 0.8-4.8 0.5-4.6-0.5-5-0.4-3.7 1 1.3 1.3 1.1 1.5-2 1.2-1.9-0.2-4.2-0.7-5-1.2-1.3-0.8-1.3-0.7 0 0.9 1 1.1 2.2 1.5 3.5 1.2 1.8-0.6 1.8-0.5 0.5 0.9-1.1 1.1-1.1 1.6-0.3 1.5 0.7 0 3.4 1 10.8 4.3l-3 0.9c-1.7 0.4-3.6 0.6-4.3 0.3-0.6-0.3-1 0-0.7 0.5 0.3 0.5-0.3 1-1.3 1-1.5 0.1-1.5 0.2 0.3 1.5 1.1 0.9 3.5 1.5 5.2 1.5 2.3 0 3.1 0.4 2.5 1.2-0.5 0.9 0.1 1 2.5 0.5 2-0.4 3.3-0.3 3.3 0.3 0 0.6 1 0.5 2.5-0.2 1.3-0.7 2.2-1.6 2-2-0.3-0.5 0.2-1.3 1-1.8 0.8-0.5 1.3-1.5 1-2-0.3-0.5-0.9-0.8-1.5-0.5-0.6 0.3-1.2 0-1.5-0.5-0.3-0.5 0.2-1 1-1 0.8 0 1.5-0.5 1.5-1 0-0.5-0.8-1-1.8-1.1-1.3 0-1.2-0.2 0.5-1 1.6-0.6 2.2-1.5 1.8-2.9-0.3-1.1 0.1-2.4 0.7-2.9 0.8-0.6 1.8-0.4 2.5 0.5 0.7 0.8 1 1.6 0.5 1.9-0.4 0.2 0.1 1.6 1 3 1 1.4 1.5 2.5 1 2.5-0.4 0.1 0.4 0.7 1.8 1.5 2.5 1.4 2.5 1.4 0.2 1.5-1.7 0-2 0.4-1.5 1.8 0.6 1.3 0.5 1.5-0.7 0.7-1.1-0.7-1.3-0.7-0.8 0.3 0.5 0.6 1.7 1.2 2.8 1.2 1.1 0 2 0.5 2 1 0 0.5-0.6 1.2-1.3 1.4-0.6 0.3-0.2 0.5 1 0.5 1.3 0.1 2.3 0.6 2.3 1.1 0 0.5-1.1 1-2.5 1-1.4 0-2.5 0.5-2.5 1 0 0.5 0.9 1.2 2 1.5 1.1 0.3 1.8 0.9 1.5 1.5-0.3 0.6 0.4 1.1 1.5 1.3 1.2 0.1 2.1 0.6 2.1 1.2 0 0.6-0.9 1.2-2.1 1.5-1.2 0.3-2.1 0.9-2.1 1.5 0 0.6 0.8 1.3 1.8 1.7 1.6 0.6 1.6 0.7-0.5 1.2-1.2 0.3-2 1-1.7 1.6 0.3 0.6 1.7 1 3.2 1 1.6-0.1 3.5 0.6 4.3 1.5 1.4 1.4 1.2 1.6-1.3 1.5-1.5 0-2.7 0.3-2.7 0.8 0.1 0.4 0.8 1.2 1.8 1.9 1.4 1.1 1 1.3-7.3 1.5l3.5 1.5c1.9 0.8 3.7 1.9 4 2.3 0.3 0.5 2.3 1 4.5 1.2 3.8 0.4 3.9 0.4 1.5 1.4-2.4 1.1-2.4 1.1-0.5 2.2 1.6 0.8 2.6 0.5 5.3-1.6 1.9-1.5 3.9-4.3 4.5-6.2 1.1-3.2 1.6-3.6 5.7-4.1 2.5-0.3 3.6-0.7 2.5-0.8-1.4-0.2-1.6-0.4-0.5-0.8 1.3-0.4 1.2-0.6-0.3-1.6-1.4-1-0.6-1.2 4.3-0.9 3.5 0.1 6-0.2 6-0.8 0-0.6-1.2-1.7-5.5-3.9h3.5c1.9-0.1 4.4-0.8 5.5-1.7 1.1-0.8 1.4-1.3 0.7-1-0.6 0.3-1.9 0.4-2.7 0.1-0.8-0.3-1.3-0.9-1-1.5 0.3-0.6-0.9-1.3-2.6-1.7-1.7-0.5-3.6-1.4-4.3-2.1-0.8-1-0.7-1.3 0.4-1.4 0.8 0 1.9 0.1 2.5 0.2 0.6 0.1 3.5 0.3 6.5 0.6 5.1 0.3 5.3 0.2 3.5-1.1-2-1.5-2-1.5 0.2-1.5 1.3 0 2.1-0.5 1.8-1-0.3-0.5-1.8-1-3.5-1q-3 0-4-2c-0.9-1.9-0.7-2 5.2-2 3.5 0 7-0.5 7.8-1 1.2-0.8 1.2-1-0.5-1-1.1-0.1 0.9-1 4.5-2.1 3.6-1.2 6.8-2.4 7.2-2.7 0.4-0.4-3.2-0.6-8-0.6-4.8 0.1-7.8-0.1-6.7-0.4 1.1-0.3 3-1.5 4.3-2.6 1.2-1.2 2.2-2.3 2.2-2.6 0-0.3-1.5-0.3-3.3-0.1-1.7 0.2-4.1 0.1-5.2-0.3-1.9-0.7-1.9-0.8 0.5-2.1 1.4-0.8 4.5-1.6 7-1.9 2.5-0.4 5.4-1.3 6.5-2 1.8-1.3 1.6-1.4-2-1-2.9 0.3-3.6 0.2-2.5-0.6 1.2-0.8 1-1-1-1.1-1.9 0-1.5-0.4 2-1.6 2.5-0.9 3.9-1.8 3.2-2-0.8-0.2-0.9-0.7-0.3-1.5 0.7-1-0.3-1.2-4.3-1.1-2.8 0.2-4.4 0-3.6-0.3 1.3-0.5 1.3-0.7 0-1.5-1.3-0.7-1.2-0.9 0.2-0.9 1 0 1.6-0.5 1.3-1-0.3-0.6 1.3-1 3.7-1 3 0 3.8-0.3 2.8-0.9-0.8-0.5-1.2-1.3-0.9-1.7 0.4-0.5 1.9-1.2 3.5-1.6 1.7-0.4 2.9-1.3 2.9-2.2 0-0.9-0.3-1.6-0.8-1.6-0.4 0-0.9 0.5-1.2 1-0.3 0.5-1.5 0.8-2.8 0.6-1.2-0.3-3.1-0.5-4.2-0.5-1.8 0-1.8-0.2-0.5-1.6 0.8-0.9 2.5-1.6 3.7-1.5 1.3 0 2.6-0.5 3-1.2 0.6-0.8 0.2-1-1.5-0.5-1.4 0.5-2.3 0.3-2.6-0.5-0.2-0.8 0.7-1.4 2.3-1.5 1.4-0.2 3.9-0.9 5.4-1.5 1.5-0.7 2.8-1.6 2.7-2 0-0.5-1-0.5-2.3-0.2-1.8 0.6-2 0.4-0.9-0.7 0.7-0.8 1.2-1.6 1.2-1.9 0-0.3-1.5-0.3-3.3-0.1-1.7 0.2-3.5-0.1-3.8-0.8-0.4-0.6 0.1-1.1 1.2-1.1 1 0 2.9-0.5 4.1-1.2 2.2-1.1 2.2-1.1 0.3-1.9-1.7-0.6-1.7-0.8-0.3-0.8 1-0.1 1.6-0.6 1.3-1.1-0.3-0.5 0.5-1.6 1.7-2.4 1.3-0.7 2.3-2.1 2.3-3 0-0.9-0.7-1.6-1.5-1.6q-1.5-0.1 0.7-1.3c1.2-0.7 2.2-1.7 2.2-2.2 0.1-0.5 0.7-1 1.3-1 0.7 0 1.3 0.6 1.3 1.3 0 0.7 0.7 1.7 1.5 2.2q1.5 1 0.2 1c-0.7 0-1.1 1-1 2.3 0.2 1.5 1.3 2.6 3.8 3.4 1.9 0.7 2.9 1.2 2.2 1.2-0.6 0.1-1.7 0.2-2.4 0.4-0.6 0.1-1.3 0.8-1.5 1.5-0.2 0.6 1 1.5 2.7 2 1.6 0.4 2.7 0.9 2.4 1.2-0.3 0.3-1.8 0.6-3.2 0.8-1.5 0.2-2.9 0.6-3.2 0.8-0.3 0.3 0.2 0.9 1 1.4 0.8 0.6 1.1 1 0.5 1-0.6 0.1 0.1 0.6 1.5 1.2 2.4 1 2.4 1-1.5 2.6l2 0.7c1.1 0.4 3 1.1 4.2 1.6 1.3 0.5 3.5 0.9 5 1 1.6 0 2.2 0.2 1.5 0.5-0.6 0.2-0.9 0.9-0.5 1.6 0.6 0.9 0.3 1-1 0.5-0.9-0.4-2.4-0.5-3.2-0.2-0.8 0.3-1.3 0.8-1.1 1.3 0.2 0.4-0.3 0.7-1.3 0.7-0.9-0.1-2.2-0.4-2.9-0.8-0.6-0.4-1.5-0.5-2-0.2-0.4 0.3 0.4 1.5 1.8 2.7 1.6 1.4 4.3 2.4 7.5 2.7 3.7 0.3 4.8 0.2 4.2-0.7q-0.7-1.2 1.5-1.3c1.3 0 4.1-0.9 6.3-1.9 2.2-1 3.2-1.9 2.2-1.9-0.9-0.1-1.7-0.6-1.7-1.1 0-0.5 0.7-1 1.5-1 0.8 0 1.3-0.5 1-1-0.3-0.5-0.1-1 0.5-1 0.6 0 1-0.7 1-1.5 0-0.8-0.6-1.4-1.3-1.4-0.6 0.1-2.3 0-3.7-0.1-2.3-0.1-2.3-0.2 0.7-1.3 1.8-0.7 3.3-1.7 3.3-2.2 0.1-0.5-0.8-1.2-2-1.5-1.9-0.5-1.8-0.6 0.7-1.7 1.7-0.7 3-2.2 3.3-3.6 0.3-1.4 0.2-2.3-0.3-2.1-0.4 0.2-0.7 0.1-0.7-0.3 0-0.5 0.7-1.6 1.5-2.5 1.1-1.3 2-1.5 3.2-0.8 1.4 0.7 1.5 0.9 0.3 1-1.1 0-1 0.4 0.5 1.6 1.1 0.8 1.4 1.3 0.7 1-0.7-0.4-1.1 0.1-1 1.2 0.2 0.9 1.1 2.4 2 3.2 1 0.8 1.4 1.9 1 2.3-0.4 0.4 0 1.2 0.8 1.7 1.3 0.9 1.3 1 0 1-1.1 0-1 0.4 0.5 1.5 1.1 0.8 2.9 1.5 4 1.5 1.8 0.1 1.9 0.1 0.2 1-0.9 0.6-2.6 0.8-3.7 0.5-1.7-0.4-1.9-0.2-1 1.5 0.9 1.8 0.7 1.9-1.3 1.4-1.8-0.5-2-0.4-0.9 0.7 0.8 0.8 3.5 1.9 6 2.5 4.6 1.2 4.7 1.2 1.7 1.9-2.3 0.6-2.7 0.9-1.5 1.6 0.8 0.5 2.6 0.9 4 0.8 2.3 0 2.4 0.2 1 1.7-1 1-2.6 1.5-4.7 1.3-2.2-0.3-3.3 0-3.3 0.9 0 0.6 1.5 1.7 3.2 2.3 2.9 1 3.1 1.2 1.3 1.8-1.8 0.7-1.8 0.8-0.3 1.4 1 0.4 2.6 0.7 3.5 0.7 1 0 2.4 1.1 4.3 5l-4.3-0.7c-3.1-0.5-4-0.3-3.5 0.5 0.5 0.7 0.3 1.2-0.5 1.2q-1.2 0-0.2 0.9c0.6 0.6 2.8 1.7 5 2.5 2.9 1.1 3.4 1.5 1.7 1.5-1.2 0.1-2 0.4-1.8 0.9 0.2 0.4-1 0.5-2.8 0.3-2.6-0.3-2.9-0.1-1.8 1 0.8 0.8 3.2 1.7 5.5 2.1 2.3 0.4 5.8 1.1 7.7 1.6 1.9 0.6 2.7 1 1.7 1.1-0.9 0.1-1.7 0.7-1.7 1.4 0 0.9-1 1-4 0.5-3.8-0.8-3.9-0.7-3 1.2 0.6 1.1 2 2.3 3.2 2.6 1.3 0.3 4.1 0 6.3-0.7 2.2-0.7 4.4-1.6 4.9-2.1 0.6-0.5 0.2-0.8-1-0.8-1.8 0-1.8-0.1 0.3-2 1.3-1.1 2.3-2.5 2.3-3 0-0.5-0.7-1-1.5-1-0.8 0-1.9-0.2-2.5-0.5-0.6-0.3-1.3-0.5-1.8-0.5-0.4-0.1 0.8-0.7 2.5-1.5 1.8-0.8 3.1-2 2.8-2.5-0.3-0.5-1.4-0.8-2.5-0.5-1.1 0.3-2 0-2-0.5 0-0.5 0.8-1 1.7-1 1 0.1 2.5-0.7 3.3-1.6 0.8-1 1.6-2.3 1.7-3.1 0.2-0.7-0.1-1.3-0.7-1.3-0.6 0-0.5-1 0.2-2.5 0.7-1.4 1.7-2.3 2.3-2.2 0.6 0.2 1 0.8 0.9 1.3-0.1 0.5 0.6 1.5 1.5 2.2 0.9 0.8 1 1.1 0.3 0.8-0.7-0.4-1.2 0.2-1.2 1.4 0 1.1 0.9 2.7 2 3.5 1.1 0.8 1.8 2 1.5 2.5-0.3 0.5 0.1 1 0.7 1.1 0.8 0 0.7 0.3-0.2 0.6-1.2 0.4-1.1 0.7 0.5 1.8 1.1 0.8 2.8 1.5 3.7 1.5 1.1 0 1.5 0.4 1 1.1-0.4 0.6-1.9 1-3.3 0.8-2.3-0.3-2.5-0.1-1.8 1.4 0.8 1.4 0.6 1.6-1.4 1.1-2-0.6-2.1-0.5-0.7 1 0.8 1 3.2 1.9 5.2 2.2 2.8 0.3 3.7 0.8 3.3 1.9q-0.5 1.5-2.8 0.9c-1.7-0.5-1.9-0.4-0.7 0.5 0.8 0.6 2.5 1.1 3.7 1.1 1.4 0 2.3 0.6 2.3 1.5 0 1-1.1 1.6-3.1 1.8-1.7 0.1-3.2-0.1-3.5-0.5-0.2-0.5-0.7-0.8-1.2-0.8-0.4 0-0.7 0.7-0.7 1.5 0 0.8 1.4 2 3 2.6 1.6 0.6 2.4 1.3 1.7 1.5-0.6 0.2-1 0.9-0.7 1.4 0.3 0.5 1.6 1 3 1 1.4 0 3.2 0.7 4 1.5 1.1 1.1 1.1 1.5 0.2 1.5q-1.2 0 0.3 1.1c1.1 0.8 0.2 0.9-3.5 0.5-3.5-0.4-4.5-0.3-3.5 0.4 1.3 0.9 1.3 1.1 0 1.9-1.1 0.7-0.4 1.2 3 2.4 2.5 0.9 3.7 1.6 2.7 1.6-0.9 0.1-1.5 0.5-1.2 1.1 0.3 0.6-0.9 0.8-3.3 0.5-3.5-0.4-3.6-0.4-1.7 1 1.1 0.9 3 1.5 4.2 1.5 1.3 0 3.9 0.7 5.8 1.5 2.2 0.9 3.2 1.9 2.7 2.6-0.4 0.8-2.1 1-4.5 0.5-3.3-0.5-3.6-0.4-2.8 1.2 0.4 0.9 2.4 2.5 7.6 5.1l-8-0.4c-4.4-0.2-7.8-0.2-7.5 0 0.3 0.3 3.2 1.6 6.5 3 3.3 1.3 5.1 2.5 2 2.6l2 0.9c1.1 0.5 4.5 0.9 7.5 0.9q5.5 0.1 4 1c-1.2 0.7-0.8 1.2 5 4.1l-0.6 6.3c-0.5 5-0.3 6.8 1.2 9.2 1 1.7 3.5 4.9 5.6 7.3 2.3 2.5 3.8 5.2 3.8 9.2h-170.8c-93.9 0-171-0.3-171.5-0.7-0.4-0.4 4.4-5.7 10.6-11.8 6.2-6.1 13.5-13 16.2-15.3 2.8-2.4 4.3-4.2 3.5-3.9-0.8 0.2-2.6 0.7-4 1.1-2.1 0.6-1.9 0.2 1.8-3.3 2.3-2.3 4-4.1 3.7-4.1-0.3 0-1.5 0.5-2.7 1.1-2 1-1.8 0.7 0.7-2.1 2.5-2.8 2.7-3.1 0.8-2.1-1.3 0.6-3.1 1.1-4 1.1-1.6 0.1-1.6-0.1 0.2-2.2 1.9-2.1 1.8-2-5 2.7l1.8-2.8c0.9-1.5 1.7-2.9 1.7-3.2 0-0.3-1.1-0.1-2.5 0.5-1.4 0.6-3.3 1-4.2 1-1.5 0-1.6-0.2-0.3-0.9 1-0.6-0.3-1.1-10.5-2.4l8-2.4-9-1.6 4-0.9c2.5-0.5 5-0.5 6.8 0.2 1.8 0.6 2.5 0.7 2.2 0-0.3-0.6 2.8-1 8.5-1 5.3 0 9-0.4 9-1 0-0.6-0.6-1.2-1.2-1.4-0.7-0.3-0.5-0.5 0.5-0.5 0.9-0.1 4-0.5 6.7-1.1 2.8-0.6 4.8-1.4 4.5-2-0.3-0.6 0-1.2 0.5-1.5 0.6-0.3 1-1.1 1-1.7 0.1-0.8-0.8-0.5-2.1 0.7-1.5 1.4-2.3 1.6-2.5 0.8-0.3-1-1.1-1-3.4 0.2-1.7 0.8-3 1.1-3 0.5 0-0.6-0.6-0.7-1.2-0.4-0.7 0.3-0.4-0.2 0.7-1.2 2-1.6 2-1.6-3-0.4l4-4.3-2 0.7c-1.1 0.4-3.1 1-4.5 1.3-1.8 0.4-2.9 0-3.8-1.3-0.7-1.1-1.2-1.6-1.2-1.1 0 0.4-0.7 0-1.5-0.8-0.8-0.8-2.4-1.5-3.5-1.5-1.1 0-1.8-0.4-1.5-1 0.3-0.5-0.3-1.2-1.2-1.4-1-0.3 0-0.2 2.2 0.1 3.4 0.5 3.8 0.4 2.8-0.8-0.9-1.2-0.2-1.3 5-0.5 3.4 0.5 7.6 0.6 12.2-0.6l-6-2 3.5-1.7c1.9-0.9 4.7-2 6.3-2.4 1.5-0.4 2.9-1.4 3.2-2.2 0.4-1.2-0.1-1.4-2.5-1-2.2 0.4-3 0.1-3-1 0-1.3-0.4-1.2-2.7 0.2-2.6 1.6-2.8 1.6-2 0 0.6-1.4 0.3-1.6-1.8-1.2-1.5 0.3-2.3 0.1-2-0.5 0.3-0.6-0.5-0.7-2.2-0.3-2.6 0.6-2.7 0.5-1.3-1.2 1.4-1.7 1.3-1.7-1-1-1.8 0.6-2.3 0.6-1.7-0.3q0.7-1.2-2-1.6c-2.3-0.2-2.2-0.3 0.7-0.5 2.7-0.1 3.2-0.4 2-1.2-1.1-0.7-0.1-0.8 3.5-0.4 3.7 0.5 4.6 0.4 3.5-0.4-1.2-0.9-1-1.1 1-1.1 1.4 0 4-0.4 5.8-1 1.7-0.5 3.2-1.4 3.2-2 0-0.6-1-0.7-2.2-0.3-1.7 0.5-2.1 0.3-1.5-0.5 0.4-0.7 0.1-1.2-0.8-1.2-0.8 0-2.7-0.5-4.2-1.1-2.8-1.1-2.8-1.1 3-3.3 3.1-1.1 6.1-2.6 6.5-3.2 0.4-0.6 1.5-1.4 2.5-1.7 0.9-0.4 1.7-1.1 1.7-1.7 0-0.5-1-0.3-2.2 0.5-1.3 0.8-2.6 1.5-3 1.5-0.5 0-0.6-0.4-0.3-1 0.3-0.5 0.3-1 0-1-0.3 0-1.5 0.5-5 2.3l4-4.3-6.2 0.5c-4.1 0.3-6.1 0.1-5.8-0.5 0.3-0.5-0.6-1-2-1-1.4 0-2.3-0.4-2-1 0.3-0.5-0.3-1.2-1.2-1.4-1-0.2-0.2-0.5 1.7-0.6 2.9-0.1 3.2-0.3 1.5-1-1.4-0.6 0.1-0.9 4.8-0.9 4.1-0.1 6.5-0.5 6.2-1.1-0.3-0.6 1.2-1 3.8-1 2.3 0 5.1-0.6 6.2-1.5 1.5-1.1 1.7-1.5 0.5-1.6-0.8 0-2.8-0.1-7.5 0l3-1.4c1.7-0.8 3.6-1.4 4.3-1.5 0.6 0 1-0.3 0.7-0.7-0.2-0.5 0.7-1.5 2.1-2.3 1.3-0.8 2.4-1.8 2.4-2.2 0-0.5-0.7-0.5-1.6 0-1 0.4-1.8 0.2-2.2-0.7q-0.7-1.3-2.4-0.5c-1 0.5-3.2 0.7-8.3 0.2l2.5-1.4c1.4-0.7 1.9-1.3 1.3-1.4-0.7 0-2.2-0.8-3.2-1.7-1.9-1.7-1.8-1.8 2.7-1.5 2.7 0.2 5.8-0.2 7.2-1 1.4-0.7 3.2-2 4.2-2.8 0.9-0.8 1.3-2.1 1-2.8-0.5-0.9-1.1-0.8-2.5 0.5-1.1 1.2-1.8 1.3-1.7 0.6 0-0.7-0.7-1.1-1.5-0.8-0.8 0.3-1.5 0.1-1.5-0.5 0-0.5-0.4-0.8-1-0.5-0.5 0.3-1 0.1-1-0.5 0-0.6-1-0.7-2.2-0.4-1.3 0.4-2 0.3-1.6-0.2 0.4-0.5 0-1.4-1-2.1-1.5-1.1-1.2-1.2 2.1-1.3 2 0 3.7-0.4 3.7-1 0-0.5 1.9-1.3 4.2-1.7 2.3-0.5 4.3-1.4 4.5-2 0.2-0.9-0.3-1.1-1.4-0.7-1 0.3-2.1 0.1-2.5-0.5-0.5-0.7 0.1-1.3 1.7-1.6 1.4-0.3 2.5-1.2 2.5-2 0-0.8 0.5-1.5 1-1.5 0.6 0 1-0.7 1-1.5 0-0.8-0.6-1.4-1.2-1.2-0.7 0.1-1.9 0.6-2.5 1-0.7 0.4-1.3 0.3-1.3-0.3 0-0.5-0.3-0.8-0.7-0.6-0.5 0.3-1.5 0.1-2.3-0.4-1.3-0.8-1.2-1 0.5-1.5 1.1-0.4 3-1.1 4.3-1.6 1.2-0.5 2-1.5 1.9-2.1-0.2-0.7-1.6-1.3-3-1.3-1.5 0-2.7-0.3-2.7-0.7 0-0.5 0.6-0.8 1.3-0.8 0.6 0 2.8-1 4.7-2.2 2.8-1.6 3.2-2.2 2-2.9-0.8-0.5-1-0.9-0.5-0.9 0.6 0 1-0.6 1-1.4 0-0.8-0.3-1.2-0.7-1-0.5 0.2-0.8 0-0.8-0.6 0-0.5 0.7-1.7 1.6-2.5 1.4-1.4 1.4-1.5-0.3-1.6-1.7 0-1.7-0.1 0.1-0.8 1.1-0.5 2.9-0.4 4 0.1zm178.5 72.1c-1.5 0.7-2.8 1.7-3 2.2-0.2 0.6-1.3 1-2.4 1.1-1.1 0.1-3.1 0.2-4.5 0.3-2.4 0.2-2.4 0.2-0.5 1.3 1.1 0.7 2.6 1.8 3.2 2.5 0.7 0.7 2 1.3 2.8 1.3 0.8 0 1.3 0.5 1 1-0.3 0.6-1.4 0.8-2.5 0.5-1.1-0.3-2-0.2-2 0.3 0 0.4 3 1.3 6.7 2.1 6.2 1.3 7 1.3 9.3-0.2 1.9-1.3 2.1-1.7 0.7-1.7-0.9 0-1.7-0.4-1.7-1 0-0.5-0.6-0.7-1.3-0.4-0.6 0.4-2.8 0.8-4.7 0.9l-3.5 0.3 6-2.5c-4.8-1.5-4.7-1.6-1-2.2 2.2-0.3 5.4-1.6 7-2.9 1.6-1.2 2.8-2.3 2.5-2.3-0.3 0-1.9-0.2-3.5-0.3-1.6-0.1-3.7-0.5-4.5-0.8-0.8-0.4-2.7-0.1-4.1 0.5zm-165.2 14.4c2.6 1.3 6.4 2.3 8.3 2.3 1.9 0 4.4-0.7 5.5-1.6 1.9-1.5 1.8-1.5-1.8-1-2.6 0.4-3.6 0.2-3.5-0.6 0.2-0.8-1.8-1.2-6.5-1.3h-6.9zm3.8 15.3c-2.9 0.6-2.9 0.6 1.3 2 4 1.3 4.6 1.3 8.3-0.5l4-2c-8.3 0-12 0.2-13.6 0.5zm185.4 3.6c0.1 0.2 2.9 1.4 6.2 2.6 3.5 1.3 5.5 2.5 4.7 2.9-0.7 0.4 0.3 0.9 2.3 1.3 1.9 0.3 4.4 0.3 5.5-0.1 1.1-0.4 2.8-1.5 3.7-2.5 1-1.1 1.3-2.1 0.8-2.3-0.6-0.3-1.3-0.1-1.5 0.5-0.3 0.6-1.6 0.4-3.3-0.5-1.5-0.8-3.1-1.2-3.5-0.8-0.4 0.4-1.3 0.3-2-0.4-0.7-0.6-3.9-1.1-7.2-1-3.2 0-5.8 0.2-5.7 0.3zm-132.2 8.6c0.6 0.9 0.3 1-1.4 0.5-1.3-0.4-2.2-0.3-2.2 0.3 0 0.5-1 0.7-2.3 0.3-1.6-0.5-2-0.4-1.5 0.5 0.4 0.6 0.4 1.2 0 1.2-0.4 0-1.3-0.6-2-1.3-1-1-1.3-0.9-1.3 0.5 0.1 1.4-0.6 1.7-3.2 1.3-1.8-0.3-2.7-0.3-2 0 0.7 0.2 1 0.9 0.8 1.5-0.3 0.5 1 1.2 3 1.5 1.9 0.2 3.2 0.9 3 1.5-0.3 0.5 0.7 1 2.2 1h2.8c-4.9 2.8-4.8 2.9 0.7 2.9 3.2 0 6-0.4 6.3-0.9 0.2-0.6-0.3-1-1.3-1.1-1.3 0-1.1-0.3 0.7-1.2 1.3-0.7 2.4-1.7 2.2-2.2-0.1-0.6-0.8-1-1.6-1-0.8 0-2.3-0.8-3.3-1.7-1.7-1.7-1.6-1.7 0.8-1.2q2.5 0.5 5-1.5l2.5-2.1c-7.6 0-8.5 0.3-7.9 1.2zm137.5 2.7c-0.1 0.6-0.6 0.8-1.1 0.6-0.6-0.3-1-0.2-1 0.2-0.1 0.4 1.5 1.3 3.5 2 1.9 0.7 3.5 1.7 3.5 2.3 0 0.5 1.7 1 3.7 0.9 2.1 0 4.4-0.4 5.3-0.9 0.8-0.6 1-1 0.5-1-0.6 0-0.1-0.7 1-1.5 1.5-1.1 1.6-1.5 0.5-1.6-0.9-0.1-3.8-0.2-6.5-0.4-2.8-0.1-6-0.6-7.2-1-1.3-0.4-2.2-0.2-2.2 0.4zm1.6 15.7c-2.6 0.2-4.7 0.8-4.7 1.4 0 0.5 0.9 1 2 1 1.1 0 2 0.4 2 1 0 0.5 1.7 1.2 3.7 1.6 2.1 0.3 4 0.1 4.3-0.4 0.2-0.5 1.4-1.4 2.5-2 1.7-1 1.5-1.1-1.6-0.9-2.5 0.1-3.6-0.2-3.3-1.1 0.2-0.7 0.2-1.2 0.1-1.1-0.1 0.1-2.4 0.4-5 0.5zm-145.9 2.4c0.6 0.8 0.8 1.8 0.4 2.2-0.4 0.4-1.9 0.2-3.2-0.3-1.4-0.5-2.8-0.7-3-0.5-0.3 0.3-1.4 0-2.5-0.6-1.9-1.1-1.9-1-0.5 0.5 0.8 1 1 1.8 0.5 1.8-0.6 0-0.1 0.4 1 0.9 1.1 0.4 3.3 0.9 5 0.9 1.6 0.1 4.4-0.4 6.2-0.9 1.8-0.6 3-1.5 2.8-2-0.3-0.6-1.5-1-2.8-1-1.2 0-2.9-0.6-3.7-1.3-1.2-1-1.2-1-0.2 0.3z"/>
</svg>