<svg version="1.2" xmlns="http://www.w3.org/2000/svg" viewBox="0 0 1719 964" width="1719" height="964">
	<title>stock-vector-snowboard-logo-vector-illustration-emblem-design-on-white-background-snowboarding-extreme-logo-1190105125</title>
	<style>
		.s0 { fill: #334049 } 
		.s1 { fill: #134f85 } 
	</style>
	<path id="Calque 2" fill-rule="evenodd" class="s0" d="m681.5 9c13.9 7.7 26.6 16.9 40.7 24.5 4 2.2 9.1 7.9 13.9 8.3 26.8 2.1 53.6 0 80.4-0.8 31.6-1 63.2-0.4 94.7 0.4 23.6 0.6 47.2 2 70.8 1.6 5.2-0.1 10-6.9 14-9 14.3-7.4 27.2-15.9 41.5-23.6 10.2-5.6 17.8-10.5 30-9.4 16.2 1.5 30.7 6.4 46.5 9.6 40.9 8.3 80.6 20.5 121 30.8 100.7 25.6 199.2 59.9 294.5 100.9 30.2 13 59.2 28.6 88.5 43.7 2.6 1.3 4.1 4.2 6.5 5.7 19.6 12.5 41.1 25.1 54.5 44.8 5 7.3 4.8 18.4 7 26.7 4.6 17.1 7.2 33.8 10 51.3 6.3 39.6 7.4 79.2 11.6 119 0.3 2.7 2 5.2 2.2 8 1.3 16.5 1.7 33 2.4 49.5 1.7 41.9 3.4 102.7 3.4 141.5 0.1 30.3 9.8 63.8-4 90.8-7.4 14.3-22.3 26.8-34.9 36.2-5.1 3.9-9.7 8.8-14.8 12.7-22.9 17.9-50.2 32.5-75.7 45.8-2.5 1.4-4.7 3.5-7.2 5-5.6 3.3-7.5 1.6-14.3 5.3-3.5 1.9-5.8 5.7-9.5 7.2-21.1 8.8-41.7 19.5-62.6 29.3-5.7 2.7-12.2 3.2-18 5.9-11.6 5.3-23 11.7-35.1 15.9-16.1 5.5-32.5 11.5-47.8 18.4-15.7 7.2-33.9 10.4-50.1 16.3-35.2 12.6-71.3 21.7-107.6 30.3-55.1 13.1-104.8 21.3-156.7-4.4-18-8.9-34.8-25.8-48.3-40.4-12.2-13.3-23.2-27.6-35-40.8-3.2-3.5-4.2-8.8-7-12.8-11.7-16.3-22.1-33-33-49.7-11.1-17.2-21.8-34.2-34.1-50.5-3.2-4.2-11.8-16-17.4-17-12.5-2.3-25.3-2.5-38-2.8-16.8-0.5-34.1-3.5-49.3 4.4-3.2 1.8-5.4 5.8-8 8.2-9.4 8.6-16.3 19.7-23.5 30.4-19.3 28.9-35.9 59.6-56.7 87.3-5.7 7.6-11.7 15.2-17.2 23-2.2 3.1-3.5 7-6.3 9.5-10 8.8-20 18.9-28.8 28.8-6.3 7.1-16.4 11.5-24.2 16.8-25.7 17.7-54.8 24-86.5 22.1-17.6-1.1-35.6-3.1-53-6.1-12.4-2.2-24.2-6.2-36.5-8.6-5.8-1.1-11.9-1.2-17.5-3.2-20.4-7.4-42-12.7-63-18.7-20.7-6-41.2-14.4-61.3-22.2-7.2-2.8-27.6-6.1-32.7-9.9-13.1-9.7-39.4-16.5-55.6-24.3-5.2-2.5-11.5-3.4-16.4-6.4-13.2-8.3-29.8-12.5-43.8-20.1-22.7-12.3-45.6-23.6-68.2-36.2-25.3-14.1-52.6-29.6-73.8-49.5-12.4-11.7-28.7-22.9-35.2-39.5-12.5-31.8-2.2-68.3-2-102.5 0.2-31.7 0-63.3 1-95 0.2-5.7 1.9-11.3 2.4-17 1.2-14.1 1.8-28.3 2.6-42.5 3.4-61.6 6.2-123.7 20-184 2.2-9.6 2.2-21.9 6.5-31 0.5-1 2-1.1 2.5-2 3.1-5.6 2.8-13.3 8-18 53.8-49.4 125.6-78.7 193-105.7 41.5-16.6 83.9-30.3 126-45.5 21.1-7.5 43.3-12.4 64.5-19.7 21.3-7.2 43.8-11 65.2-17.5 32-9.7 65-18.9 97.8-25.8 20.9-4.4 78.4-8.6 87-3.8zm-67 126.8c-17.4 2.1-34.6 6.1-52 8.6-34.7 5.1-68.3 12.9-102.5 20.2-13.6 2.9-26.5 6.8-40 10-8.4 2-18.1 3-26.3 6-1.7 0.6-2.2 3.3-4 3.9-7.8 2.6-17 2.6-25 5.5-3.4 1.2-6.2 3.9-9.7 5-13.6 4.5-27.6 8.5-40.8 14.4-10 4.5-20.6 11.5-30.5 15.6-4.2 1.8-9.4 2.7-13.5 5-13.8 8-27.2 17.2-40.5 26.1-12.5 8.3-31.4 21.5-41.2 32.9-9.9 11.4-10.9 25.9-14 40-3.3 14.9-5.9 29.9-8.1 45-7.8 53.2-15.6 106.4-20.9 160-2.4 24.3-6.9 62.4-8.5 86.5-0.9 14.3-3.2 67.3-1.9 85.5 0.8 12.6 14.6 22.7 23.4 30 28 23.1 63.4 43.6 96.5 58.2 28.7 12.7 57.8 23.7 87.5 34.4 4.3 1.5 8.2 4 12.5 5.3 10.4 3.1 20.6 6.9 31 9.9 7.7 2.3 17.2 2.1 24.5 5.2 8.2 3.5 16 6.3 25 7.9 3.1 0.5 12.5 0.9 16.2 2.5 1.2 0.4 1.6 2 2.8 2.4 12 4.1 25.8 4.6 38.2 6.2 7.3 0.9 14.1 3.9 21.3 4.9 20.5 2.7 53.2 6.7 73.2 1.1 9.6-2.7 17.2-10.8 24.6-16.5 17.5-13.4 30.9-30.1 44.1-48 15.3-20.5 30.5-41.2 46.1-61.5 2.8-3.7 4-8.6 7-12 7.7-8.8 15.7-18.2 23-27.5 18.7-23.8 39.7-48.2 67.5-62.1 17.3-8.6 45-6.5 60.5-6.4 15.6 0.1 31.2 0.9 46.7 2 8.2 0.6 12.3 3.9 18.8 7.8 3.9 2.2 9 3.7 12.5 6.5 16.5 13.1 31.2 29.3 44.7 45.2 2.1 2.3 5.1 3.7 6.9 6.3 8 11.1 16 22.4 24.1 33.3 1.5 2 4.8 4.2 6.3 6.7 8.1 13.7 18.2 26.9 28.2 39.2 6.1 7.4 11 16.1 16.9 23.8 14.6 19.2 34.1 41.2 53.9 55 18.3 12.7 35.4 10.2 58 9.2 22.5-0.9 43.1-5.4 65.2-8.7 17.1-2.4 36.1-7.5 52.9-11.5 6.1-1.4 11.6-4.7 17.6-6.3 27.7-7.6 59.2-15.3 85.8-26.2 11.8-4.9 23.6-10.8 35.5-15.3 14.7-5.6 29.1-11.5 43-19 31-16.8 71.3-32.5 94-60.5 1.9-2.4 5-3.5 7-5.8 16.5-19.7 8.4-56.2 7-77.7-3.4-50.8-9.3-101.2-14.5-151.8-4.4-41.8-10-83.9-17.6-125.2-3.2-17.7-5.4-35.1-10-52.5-1.8-7-3-14.8-6.9-21-7.7-12.3-25.1-20.9-35.4-30.2-12.9-11.7-29.2-21-44.9-28.3-3-1.4-5-4.5-8-6-10.4-5.5-20.9-9.7-32-14-11.4-4.4-22.6-10.3-33.8-15.3-4.2-1.9-11.2-3.4-15.4-4.7-26.1-8.4-52.3-16.9-78.3-25-27.5-8.5-57.4-10.3-85.2-17.5-19.9-5.2-40.6-7.3-61-10.8-54.9-9.5-110.9-14.5-166.5-17.8-16.8-1-33.5-3.3-50.3-3.9-51.2-1.7-230.3 6-310.7 15.8z"/>
	<path id="Calque 1" fill-rule="evenodd" class="s1" d="m883 198.5c12.2 17.7 24.9 35.7 35.8 54.4 7 12.2 15.7 23.2 23.2 35.1 22.9 36.3 48.7 70.9 69.8 108 2.3 4.1 6.3 7.2 8.7 11.3 3.4 5.5 7.1 10.7 10.5 16.2 9.7 15.7 20.5 30.4 30.3 46 3.5 5.7 8 15 15.7 16.5 11.3 2.2 18.5-9 25.5-15.5 17.2-16 35.9-30.9 51.6-48.3 1.9-2.1 5-2.9 7-4.9 1.4-1.5 2.1-3.5 3.3-5.1 1.8-2.3 5-3.3 7.2-5.4 4.6-4.5 9.4-12.2 17.9-9.3 8.1 2.9 11.8 13.6 16.8 19.6 1.2 1.5 3.1 2.3 4.5 3.7 3.3 3.6 5.2 8.3 8.1 12.2 4.7 6.1 10.8 11.8 15.1 18.2 1.1 1.7 1.6 3.6 2.8 5.2 2.2 2.9 5.3 5.2 7.4 8.2 5 7.1 11.5 19.8 19.1 25 2 1.5 4.7 1.8 7 2.8 3.1 1.3 5.8 3.6 9 4.7 6.5 2.4 13.5 3.1 20.2 4.9 6 1.7 11.4 5.4 17.4 7.2 4.3 1.4 8.9 1.6 13.4 2.8 4.6 1.2 8.8 4.6 13.2 6.1 8.2 2.9 17 4.4 24.5 8.9 14.4 8.6 22.7 26.5 33 39 7.7 9.4 15.1 19.6 23.5 28 1 1 4.9 8.1 5 8.2 2.6 4.1 6.2 7.2 9.1 10.9 5.4 7.1 10.3 14.8 16.7 20.9 7.5 7.2 11.5 18.5 18.7 26 11.6 12 20.9 26.4 31.5 39.4 3.8 4.6 7.8 9 11 14 0.7 1.2 1.8 2.8 1.1 4-2.6 4.6-14.2 8.9-18.6 11.4-8.7 4.8-17.5 11.2-26.7 15.2-11.3 4.9-22.6 9.6-33.8 14.7-23.8 10.9-48.2 20.6-73 28.9-17.6 5.9-35 13-53 17.9-7.7 2.1-15.6 3.3-23.2 5.5-41.6 12.1-84.8 20-128.3 22.4-4.3 0.2-8.8 0.7-13-0.3-10.7-2.5-19.8-13.6-27-21.3-2.6-2.8-5.8-5.1-8-8.3-1.1-1.6-1.5-3.6-2.7-5-1.3-1.4-3.2-2.2-4.5-3.5-5.2-4.8-8.5-12.2-12.8-17.7-4.8-6.2-8.8-13.1-13.5-19.1-1.9-2.4-4.9-4-6.5-6.7-1.3-2.2-2.1-4.7-3.6-6.7-2.1-3.2-5.3-5.5-7.2-8.8-1.2-2-1.9-4.3-3.3-6.2-1.9-2.8-5.1-4.6-6.9-7.5-1-1.6-1.2-3.6-2.3-5.1-2-2.7-5.1-4.6-6.9-7.5-2-3.1-3.6-6.5-5.9-9.4-2.1-2.7-4.8-4.7-6.9-7.3-8.7-10.8-16-22.1-26.5-31-2.1-1.8-2.6-5-4.5-7-1.2-1.3-3.1-1.8-4.5-3-2.7-2.3-3.9-6-6.6-8.3-1.1-0.9-2.9-0.9-4.1-1.7-2.5-1.6-3.1-5.1-5.3-7-1.6-1.4-3.8-1.8-5.5-3-2.4-1.6-3.5-4.7-5.7-6.5-1.5-1.2-3.5-1.5-5-2.5-4.5-2.7-8.2-6.5-12.8-9-2.5-1.3-5.5-1.3-8-2.5-1.7-0.8-1.8-3.6-3.5-4.5-5-2.8-15-4.3-20-5.6-2.2-0.5-17.1-4.7-19-4.8-25.4-1.3-61.9-0.7-87.5 2.1-3.6 0.4-7 2.2-10.5 3.2-4.1 1.1-8.5 1.6-12.5 3.1-9.2 3.4-18.4 10.2-26.3 15.7-7.6 5.3-16.2 10.1-23 16.6-5.4 5.2-10.5 11.3-15.9 16.7-14.6 14.4-26.5 30.6-38.9 46.8-12.6 16.3-24.5 33-36.9 49.5-5.7 7.6-10.4 16.6-16.7 23.7-1.4 1.6-3.3 2.6-4.5 4.3-1.1 1.4-1.3 3.2-2.3 4.7-4.2 6.7-11.2 11.9-16 18.3-7 9.4-14.9 19.1-24.5 26.4-9.1 7-16.2 6.5-27 5.3-21-2.2-41.9-3.8-62.7-7.1-11.6-1.8-22.4-5.2-33.8-7.5-57.2-11.6-112.4-32.3-166.5-53.8-5.3-2.1-10.2-5.5-15.5-7.8-19-7.9-38-16.9-55.5-27.8-7.6-4.7-17.9-6.8-22.5-15.5-0.3-0.5 0.6-1 1-1.5 1.8-2.3 3.6-4.5 5.4-6.7 4.5-5.8 9-14.9 14.1-20.3 5-5.3 10-11.1 14.5-17.2 4.9-6.8 9.4-13.9 14-20.8 1.7-2.6 4.6-4.2 6.6-6.6 1.3-1.8 1.9-4.1 3.2-5.9 1.7-2.5 4.3-4.3 6.2-6.7 2.2-3 3.5-6.9 5.8-9.8 1.5-2 3.5-3.6 5-5.7 1.6-2.4 2.6-5.2 4.2-7.5 2.1-3.1 5.2-5.2 7.4-8 1.7-2.1 2.3-5.1 4.6-6.4 3.1-1.7 7-1.2 10.5-2 8.5-2 16.9-4.2 25.5-5.5 11.1-1.7 24-2.2 35-4.9 5.8-1.4 11.3-4 17.3-5 13-2.2 25.2-3.7 37.5-8.4 4.2-1.5 8.8-1.7 13-3.6 4.3-1.9 8.2-7.7 11.2-11.2 4.3-5.1 7.8-12.2 12.3-16.8 1.1-1.2 2.8-1.7 4-2.8 4.9-5.1 9.6-11.6 13.7-17.2 7.6-10.3 17.4-19.5 25.5-29.5 5.9-7.2 11.7-16 18.3-22.5 4.6-4.7 9.9-9.8 14.2-15 0.9-1.2 1.1-2.8 2-4 2.3-3.1 5.5-5.5 8-8.5 6.8-7.8 13.4-15.8 20-23.7 3.8-4.6 5.3-8.4 11.1-11.1 9.5-4.4 20.3 8.4 25.9 14.3 7.8 8.3 18.5 15.6 27.3 23 2.7 2.4 6.1 3.8 8.7 6.3 5.4 5.1 11.3 13.3 18.8 16 7.8 2.9 11.4 0.6 17.5-5.1 3.8-3.5 5.7-8.6 9.2-12.5 5.6-6.2 10.3-13.5 15.3-20.6 11-15.7 23.9-30.7 33.2-47.3 1.7-3.2 5-5.2 7.2-8.1 1.2-1.5 1.6-3.6 2.7-5.2 8.9-13 18.9-25.6 28.3-38.2 7.7-10.5 15.3-21.2 22.1-32 2.6-4.1 6.6-7.6 9.3-11.5 4.6-6.6 8.4-14.8 13.7-20.8 1-1.2 2.7-1.9 3.8-3.2 5.5-6.9 9.9-14.8 14.9-22 6.1-8.7 13.1-16.7 18.8-25.5 5.2-8.3 30.9-14 35.2-7.8zm-48.7 109.1c-7.4 9.8-13.9 20.1-21 30-16.2 22.2-33.7 44.4-47.3 68.2-4.1 7-11 12.7-15.6 19.5-1.8 2.6-3 5.8-4.8 8.5-8.6 12.5-18.1 24.5-26.6 37-1.6 2.3-2.4 5.1-4 7.5-1.7 2.4-5.2 2.4-4.8 6.5 0.7 6 8.5 12 12.6 15.7 2.5 2.4 3.8 5.7 6.1 8.3 1.7 2 4.9 2.6 6.1 5 5.5 10.5 4.7 20.5-2.5 29.5-9.3 11.6-18.1 23.4-27.3 35.2-8.2 10.4-17.5 20.1-25.7 30.5-5.9 7.5-10.6 16.5-17.2 23.4-2.8 2.9-5.3 5.9-7.6 9.1-2.9 3.9-7.5 6.4-9.3 11.3-0.6 1.6-1.8 7.6 0.2 9.5 0.9 0.8 2.5 0.4 3.7 0.1 6.1-1.7 8.8-5.1 13.7-8.4 6.8-4.6 14.4-8.8 20.8-13.9 1.3-1.1 2-2.8 3.2-3.8 2.7-2.3 6.1-3.5 9-5.3 4.6-2.9 8.9-6.3 13.2-9.5 16.3-12 33.3-23 48.8-35.7 4-3.3 4.7-2.4 9-4.8 7.3-4.1 14-10.4 20.6-15.5 4.2-3.2 9.1-5.2 13.2-8.5 1.4-1.2 2.2-2.9 3.7-4 3.4-2.4 10.3-4.4 11.9-8.7 1.5-4.1 1.4-8.6 2.1-12.8 2.4-14.4 5.4-28.5 7.3-43 3.7-27.8 8.3-55.3 12.3-83 2-14.1 5.1-28 7.4-42 2.3-13.9 3.4-28.1 5.8-42 1.4-8.2 4.2-17.3 3-25.9-0.2-1.7-3.4-5.7-5.9-4.6-2.4 1-9.5 10.3-14.1 16.6zm-265.1 147.4c-10.3 12.3-20 25.6-29.7 38.4-12 15.9-23.9 31.7-36 47.6-4.2 5.6-9 14.7-14 20-0.9 0.9-2.3 1.3-3.1 2.2-7.9 8.9-15.2 19.6-21.9 29.3-1.9 2.8-3.1 6.1-5.5 8.5-1.1 1.1-2.6 1.6-3.6 2.8-5.1 6-9.6 13.2-13.9 19.7-2.2 3.4-5.6 5.9-7.9 9.3-2 2.9-2.5 7.1-5.3 9.2-12.5 8.9-27.2-0.7-39-5.5-4.9-2.1-10.2-2.9-15.3-4.5-3.1-0.9-5.3-3.7-8.2-5-5.1-2.3-12.9-3.1-18-4.9-3.6-1.3-6.6-4-10-5.5-5.1-2.2-13.4-3-18.5-1.2-8.3 2.9-9.5 10-13.6 16.5-11 17.3-20.5 35.5-30.9 53.4-6.1 10.4-12.5 20.9-17.8 31.7-0.7 1.4-1.8 2.7-2.2 4.2-0.3 1.1-0.9 3 0.2 3.3 7.2 1.5 13.7-8.8 17.8-13.1 8.8-9.4 17.3-19.3 26.5-28.5 2.8-2.9 3.4-2.1 5.6-4.6 3.5-4.1 10.5-13.4 16.9-13.3 4.4 0 9.4 4.5 12.7 6.1 23.7 11.4 47.3 23.4 71.3 34.2 4.8 2.2 13.5 7.9 19.3 4.7 4.3-2.4 7.4-6.6 10.9-10 1.9-1.8 2.6-4.4 4.3-6.4 2-2.5 4.4-4.6 6.5-7 3-3.7 4.9-8.3 8.5-11.6 1-0.9 2.5-1.2 3.4-2.2 2.3-2.7 3.3-6.4 5.8-8.8 18.9-18.1 34.3-41.2 51.5-61.2 13.1-15.5 26.2-30.5 38.6-46.5 1.9-2.5 4.9-3.9 6.9-6.3 1.3-1.6 2.4-5.9 4.3-7.6 1.3-1.3 3.1-2 4.5-3.3 5.6-5.4 9.4-13.1 14.7-18.8 1.9-2.1 4.7-3.5 6.3-5.9 0.5-0.8 0.2-2.7 1.2-2.6 18.1 0.2 35.9 4.9 54 6.7 5.5 0.5 19.3 4.9 24-3 4.7-7.9-11.2-13.9-15.5-17.5-5.5-4.5-11-8.6-16.5-13-4-3.2-9.1-4.4-12.9-7.7-7.8-6.7-16.3-12.4-24.8-18.3-6.7-4.7-27.5-8.9-31.6-4zm586.1 11.1q-15.5 15.7-31 31.3c-5 5-13.5 10.5-13.3 18.6 0.2 7.8 4.5 11 8.9 16.3 2 2.4 3.3 5.3 4.9 8 2.2 3.4 5.1 5.7 7.2 9 3.5 5.4 7.6 10.2 11 15.7 2.9 4.5 2.7 6.9 9 8 7.5 1.4 8-7.8 9-12.5 1.1-5.3 2-10.7 3.1-16 2.2-11.1 5.6-21.9 7.9-33 2.3-10.8 4.1-21.3 6.9-32 1.2-4.7 4.7-17.9 5.1-24 0.2-2.9 0.7-9.1-4.7-8.4-3 0.3-16.5 11.3-24 19zm184.6 135.7c-2.2 2.5-3.3 6-5.9 8.2-6.7 5.9-14.2 12.8-19 20.3-1.9 2.8-3.7 2.3-6.6 5.2-1.4 1.4-2.2 3.4-3.4 5-2.3 3-4 2.7-7 5.8-1.3 1.4-2 3.4-3.2 4.9-1.9 2.2-4.9 3.2-6.8 5.3-2.2 2.4-3.8 5.2-5.4 8-4 7.3-5.2 15.2-7.8 23-1.3 3.8-3.5 7.2-4.8 11-3.7 10.6-2.5 19-13.3 25.5-16.2 9.7-35.2 16-52.2 24.3-11.6 5.6-23 12.2-35 16.9-4.2 1.7-12.7 4.2-15.7 7.8-0.5 0.6-4 8.6-0.3 9.8 3.1 0.9 6.5-0.3 9.8-0.8 11-1.6 21.9-4.6 33-6.4 18.2-3 36-7 54.2-10.1 9.3-1.6 31.6-2.7 41.3-9.5 2.5-1.8 3.8-5 5.2-7.7 1.3-2.5 4.3-3.4 6.1-5.5 1.4-1.6 2-3.8 3.3-5.5 2.1-3.1 5.5-5.2 7.6-8.3 1.3-1.8 1.8-4.1 3-6 1.7-2.7 5.9-5.4 8-8 5-6.2 8.6-13.9 14-19.7 1.4-1.5 3.3-2.5 4.6-4.1 3.2-3.7 6.9-8.6 9.9-12.7 3.4-4.7 4.5-8.1 10-10.5 4.2-1.9 11.7 2.5 15.8 3.6 14.8 4 29 9.1 44 12.8 2.8 0.7 10.6 4.7 13.8 2.1 2.6-2.2-0.6-8.8-1.3-9.9-1.1-1.6-3-2.4-4.2-3.8-3.7-3.9-5.4-9.1-8.6-13.3-15.4-20-30.6-40-45.4-60.5-3.5-4.9-8.5-16.8-16-17-2 0-14.9 11.7-21.7 19.8z"/>
</svg>