<svg version="1.2" xmlns="http://www.w3.org/2000/svg" viewBox="0 0 1413 638" width="1413" height="638">
	<title>snowtricks-logo-svg</title>
	<style>
		.s0 { fill: #e3ebf4 } 
	</style>
	<path id="Calque 1" fill-rule="evenodd" class="s0" d="m1 637.9c-7.6-4.7 66.6-111.7 62-120.4-0.3-0.5 0.6-1 1-1.5 1.8-2.3 3.6-4.5 5.4-6.7 4.5-5.8 9-14.9 14.1-20.3 5-5.3 10-11.1 14.5-17.2 4.9-6.8 9.4-13.9 14-20.8 1.7-2.6 4.6-4.2 6.6-6.6 1.3-1.8 1.9-4.1 3.2-5.9 1.7-2.5 4.3-4.3 6.2-6.7 2.2-3 3.5-6.9 5.8-9.8 1.5-2 3.5-3.6 5-5.7 1.6-2.4 2.6-5.2 4.2-7.5 2.1-3.1 5.2-5.2 7.4-8 1.7-2.1 2.3-5.1 4.6-6.4 3.1-1.7 7-1.2 10.5-2 8.5-2 16.9-4.2 25.5-5.5 11.1-1.7 24-2.2 35-4.9 5.8-1.4 11.3-4 17.3-5 13-2.2 25.2-3.7 37.5-8.4 4.2-1.5 8.8-1.7 13-3.6 4.3-1.9 8.2-7.7 11.2-11.2 4.3-5.1 7.8-12.2 12.3-16.8 1.1-1.2 2.8-1.7 4-2.8 4.9-5.1 9.6-11.6 13.7-17.2 7.6-10.3 17.4-19.5 25.5-29.5 5.9-7.2 11.7-16 18.3-22.5 4.6-4.7 9.9-9.8 14.2-15 0.9-1.2 1.1-2.8 2-4 2.3-3.1 5.5-5.5 8-8.5 6.8-7.8 13.4-15.8 20-23.7 3.8-4.6 5.3-8.4 11.1-11.1 9.5-4.4 20.3 8.4 25.9 14.3 7.8 8.3 18.5 15.6 27.3 23 2.7 2.4 6.1 3.8 8.7 6.3 5.4 5.1 11.3 13.3 18.8 16 7.8 2.9 11.4 0.6 17.5-5.1 3.8-3.5 5.7-8.6 9.2-12.5 5.6-6.2 10.3-13.5 15.3-20.6 11-15.7 23.9-30.7 33.2-47.3 1.7-3.2 5-5.2 7.2-8.1 1.2-1.5 1.6-3.6 2.7-5.2 8.9-13 18.9-25.6 28.3-38.2 7.7-10.5 15.3-21.2 22.1-32 2.6-4.1 6.6-7.6 9.3-11.5 4.6-6.6 8.4-14.8 13.7-20.8 1-1.2 2.7-1.9 3.8-3.2 5.5-6.9 9.9-14.8 14.9-22 6.1-8.7 13.1-16.7 18.8-25.5 5.2-8.3 30.9-14 35.2-7.8 12.2 17.7 24.9 35.7 35.8 54.4 7 12.2 15.7 23.2 23.2 35.1 22.9 36.3 48.7 70.9 69.8 108 2.3 4.1 6.3 7.2 8.7 11.3 3.4 5.5 7.1 10.7 10.5 16.2 9.7 15.7 20.5 30.4 30.3 46 3.5 5.7 8 15 15.7 16.5 11.3 2.2 18.5-9 25.5-15.5 17.2-16 35.9-30.9 51.6-48.3 1.9-2.1 5-2.9 7-4.9 1.4-1.5 2.1-3.5 3.3-5.1 1.8-2.3 5-3.3 7.2-5.4 4.6-4.5 9.4-12.2 17.9-9.3 8.1 2.9 11.8 13.6 16.8 19.6 1.2 1.5 3.1 2.3 4.5 3.7 3.3 3.6 5.2 8.3 8.1 12.2 4.7 6.1 10.8 11.8 15.1 18.2 1.1 1.7 1.6 3.6 2.8 5.2 2.2 2.9 5.3 5.2 7.4 8.2 5 7.1 11.5 19.8 19.1 25 2 1.5 4.7 1.8 7 2.8 3.1 1.3 5.8 3.6 9 4.7 6.5 2.4 13.5 3.1 20.2 4.9 6 1.7 11.4 5.4 17.4 7.2 4.3 1.4 8.9 1.6 13.4 2.8 4.6 1.2 8.8 4.6 13.2 6.1 8.2 2.9 17 4.4 24.5 8.9 14.4 8.6 22.7 26.5 33 39 7.7 9.4 15.1 19.6 23.5 28 1 1 4.9 8.1 5 8.2 2.6 4.1 6.2 7.2 9.1 10.9 5.4 7.1 10.3 14.8 16.7 20.9 7.5 7.2 11.5 18.5 18.7 26 11.6 12 64.9 160.9 75.5 173.9m-715.2-526.3c-7.4 9.8-13.9 20.1-21 30-16.2 22.2-33.7 44.4-47.3 68.2-4.1 7-11 12.7-15.6 19.5-1.8 2.6-3 5.8-4.8 8.5-8.6 12.5-18.1 24.5-26.6 37-1.6 2.3-2.4 5.1-4 7.5-1.7 2.4-5.2 2.4-4.8 6.5 0.7 6 8.5 12 12.6 15.7 2.5 2.4 3.8 5.7 6.1 8.3 1.7 2 4.9 2.6 6.1 5 5.5 10.5 4.7 20.5-2.5 29.5-9.3 11.6-18.1 23.4-27.3 35.2-8.2 10.4-17.5 20.1-25.7 30.5-5.9 7.5-10.6 16.5-17.2 23.4-2.8 2.9-5.3 5.9-7.6 9.1-2.9 3.9-7.5 6.4-9.3 11.3-0.6 1.6-1.8 7.6 0.2 9.5 0.9 0.8 2.5 0.4 3.7 0.1 6.1-1.7 8.8-5.1 13.7-8.4 6.8-4.6 14.4-8.8 20.8-13.9 1.3-1.1 2-2.8 3.2-3.8 2.7-2.3 6.1-3.5 9-5.3 4.6-2.9 8.9-6.3 13.2-9.5 16.3-12 33.3-23 48.8-35.7 4-3.3 4.7-2.4 9-4.8 7.3-4.1 14-10.4 20.6-15.5 4.2-3.2 9.1-5.2 13.2-8.5 1.4-1.2 2.2-2.9 3.7-4 3.4-2.4 10.3-4.4 11.9-8.7 1.5-4.1 1.4-8.6 2.1-12.8 2.4-14.4 5.4-28.5 7.3-43 3.7-27.8 8.3-55.3 12.3-83 2-14.1 5.1-28 7.4-42 2.3-13.9 3.4-28.1 5.8-42 1.4-8.2 4.2-17.3 3-25.9-0.2-1.7-3.4-5.7-5.9-4.6-2.4 1-9.5 10.3-14.1 16.6zm-265.1 147.4c-10.3 12.3-20 25.6-29.7 38.4-12 15.9-23.9 31.7-36 47.6-4.2 5.6-9 14.7-14 20-0.9 0.9-2.3 1.3-3.1 2.2-7.9 8.9-15.2 19.6-21.9 29.3-1.9 2.8-3.1 6.1-5.5 8.5-1.1 1.1-2.6 1.6-3.6 2.8-5.1 6-9.6 13.2-13.9 19.7-2.2 3.4-5.6 5.9-7.9 9.3-2 2.9-2.5 7.1-5.3 9.2-12.5 8.9-27.2-0.7-39-5.5-4.9-2.1-10.2-2.9-15.3-4.5-3.1-0.9-5.3-3.7-8.2-5-5.1-2.3-12.9-3.1-18-4.9-3.6-1.3-6.6-4-10-5.5-5.1-2.2-13.4-3-18.5-1.2-8.3 2.9-9.5 10-13.6 16.5-11 17.3-20.5 35.5-30.9 53.4-6.1 10.4-12.5 20.9-17.8 31.7-0.7 1.4-1.8 2.7-2.2 4.2-0.3 1.1-0.9 3 0.2 3.3 7.2 1.5 13.7-8.8 17.8-13.1 8.8-9.4 17.3-19.3 26.5-28.5 2.8-2.9 3.4-2.1 5.6-4.6 3.5-4.1 10.5-13.4 16.9-13.3 4.4 0 9.4 4.5 12.7 6.1 23.7 11.4 47.3 23.4 71.3 34.2 4.8 2.2 13.5 7.9 19.3 4.7 4.3-2.4 7.4-6.6 10.9-10 1.9-1.8 2.6-4.4 4.3-6.4 2-2.5 4.4-4.6 6.5-7 3-3.7 4.9-8.3 8.5-11.6 1-0.9 2.5-1.2 3.4-2.2 2.3-2.7 3.3-6.4 5.8-8.8 18.9-18.1 34.3-41.2 51.5-61.2 13.1-15.5 26.2-30.5 38.6-46.5 1.9-2.5 4.9-3.9 6.9-6.3 1.3-1.6 2.4-5.9 4.3-7.6 1.3-1.3 3.1-2 4.5-3.3 5.6-5.4 9.4-13.1 14.7-18.8 1.9-2.1 4.7-3.5 6.3-5.9 0.5-0.8 0.2-2.7 1.2-2.6 18.1 0.2 35.9 4.9 54 6.7 5.5 0.5 19.3 4.9 24-3 4.7-7.9-11.2-13.9-15.5-17.5-5.5-4.5-11-8.6-16.5-13-4-3.2-9.1-4.4-12.9-7.7-7.8-6.7-16.3-12.4-24.8-18.3-6.7-4.7-27.5-8.9-31.6-4zm586.1 11.1q-15.5 15.7-31 31.3c-5 5-13.5 10.5-13.3 18.6 0.2 7.8 4.5 11 8.9 16.3 2 2.4 3.3 5.3 4.9 8 2.2 3.4 5.1 5.7 7.2 9 3.5 5.4 7.6 10.2 11 15.7 2.9 4.5 2.7 6.9 9 8 7.5 1.4 8-7.8 9-12.5 1.1-5.3 2-10.7 3.1-16 2.2-11.1 5.6-21.9 7.9-33 2.3-10.8 4.1-21.3 6.9-32 1.2-4.7 4.7-17.9 5.1-24 0.2-2.9 0.7-9.1-4.7-8.4-3 0.3-16.5 11.3-24 19zm184.6 135.7c-2.2 2.5-3.3 6-5.9 8.2-6.7 5.9-14.2 12.8-19 20.3-1.9 2.8-3.7 2.3-6.6 5.2-1.4 1.4-2.2 3.4-3.4 5-2.3 3-4 2.7-7 5.8-1.3 1.4-2 3.4-3.2 4.9-1.9 2.2-4.9 3.2-6.8 5.3-2.2 2.4-3.8 5.2-5.4 8-4 7.3-5.2 15.2-7.8 23-1.3 3.8-3.5 7.2-4.8 11-3.7 10.6-2.5 19-13.3 25.5-16.2 9.7-35.2 16-52.2 24.3-11.6 5.6-23 12.2-35 16.9-4.2 1.7-12.7 4.2-15.7 7.8-0.5 0.6-4 8.6-0.3 9.8 3.1 0.9 6.5-0.3 9.8-0.8 11-1.6 21.9-4.6 33-6.4 18.2-3 36-7 54.2-10.1 9.3-1.6 31.6-2.7 41.3-9.5 2.5-1.8 3.8-5 5.2-7.7 1.3-2.5 4.3-3.4 6.1-5.5 1.4-1.6 2-3.8 3.3-5.5 2.1-3.1 5.5-5.2 7.6-8.3 1.3-1.8 1.8-4.1 3-6 1.7-2.7 5.9-5.4 8-8 5-6.2 8.6-13.9 14-19.7 1.4-1.5 3.3-2.5 4.6-4.1 3.2-3.7 6.9-8.6 9.9-12.7 3.4-4.7 4.5-8.1 10-10.5 4.2-1.9 11.7 2.5 15.8 3.6 14.8 4 29 9.1 44 12.8 2.8 0.7 10.6 4.7 13.8 2.1 2.6-2.2-0.6-8.8-1.3-9.9-1.1-1.6-3-2.4-4.2-3.8-3.7-3.9-5.4-9.1-8.6-13.3-15.4-20-30.6-40-45.4-60.5-3.5-4.9-8.5-16.8-16-17-2 0-14.9 11.7-21.7 19.8z"/>
</svg>