<svg version="1.2" xmlns="http://www.w3.org/2000/svg" viewBox="0 0 1277 1275" width="1277" height="1275">
	<title>Nouveau projet</title>
	<style>
		.s0 { fill: #00386b } 
	</style>
	<path id="Calque 3" fill-rule="evenodd" class="s0" d="m637 0.2c9.6-0.1 27.9 0.3 40.5 0.8 18.6 0.7 27 1.6 44 4.4 11.5 1.9 26.9 4.4 34 5.5 7.1 1.1 24.5 4.9 38.5 8.5 14 3.5 37.6 10.5 52.5 15.4 14.9 4.9 34.9 12.4 44.5 16.6 9.6 4.3 26 12 36.5 17.1 10.5 5.2 26.7 13.9 36 19.5 9.3 5.6 25.3 15.7 35.5 22.5 10.2 6.8 23.5 16.3 29.5 21.1 6 4.8 14.4 11.7 18.5 15.2 4.1 3.5 15.3 13.7 24.8 22.6 9.5 8.8 21.9 21 27.6 27.1 5.7 6.1 16 17.3 23.1 25 7 7.7 14.7 16.2 17 19 2.3 2.7 8.5 11.1 13.7 18.5 5.3 7.4 12.9 18.7 17 25 4.2 6.3 11.9 18.6 17.2 27.2 5.3 8.7 12.7 21.3 16.5 28 3.7 6.8 9.1 16.8 11.8 22.3 2.8 5.5 6.9 14.7 9.2 20.5 2.2 5.8 6.4 16.6 9.2 24 2.8 7.4 8.4 23.4 12.5 35.5 4.1 12.1 8.6 26.3 9.9 31.5 1.3 5.2 4.4 20.1 6.9 33 2.5 12.9 5.8 29.8 7.4 37.5 1.7 7.7 3.6 20.3 4.3 28 1 9.7 1.4 29.7 1.4 65 0 32.9-0.5 56.5-1.3 66.5-0.7 8.5-2.4 20.7-3.7 27-1.4 6.3-3.6 19.1-5 28.5-1.4 9.4-3.5 20.4-4.6 24.5-1.2 4.1-4.1 14.9-6.4 24-2.3 9.1-7.6 26.2-11.8 38-4.1 11.8-9.6 26.9-12.2 33.5-2.6 6.6-7.7 18.3-11.2 26-3.5 7.7-11.7 23.7-18 35.5-6.4 11.8-14.3 26.2-17.6 32-3.3 5.8-9.4 15.7-13.5 22-4.2 6.3-11.8 17.1-17 24-5.2 6.9-14.1 17.9-19.7 24.5-5.6 6.6-16.5 18.7-24.2 27-7.7 8.2-20.7 21.4-28.9 29.1-8.2 7.8-20.1 18.7-26.4 24.1-6.3 5.5-21.4 17.8-33.5 27.3-12.1 9.5-25.2 19.4-29 22-3.8 2.6-19.6 11.9-35 20.7-15.4 8.8-31.6 17.8-36 20-4.4 2.3-15.2 7.1-24 10.8-8.8 3.8-22.8 9.3-31 12.3-8.3 2.9-23.5 8.3-34 11.8-10.5 3.5-23.3 7.3-28.5 8.5-5.2 1.1-13.5 3.1-18.5 4.3-5 1.3-15.3 3.4-23 4.6-7.7 1.2-19.6 3.5-26.5 5.1-6.9 1.5-17.7 3.3-24 3.9-7.8 0.8-33.6 1-80.5 0.7-55.6-0.4-70.4-0.8-76-2-3.9-0.8-18.7-3.8-33-6.6-14.3-2.9-31.4-6.6-38-8.2-6.6-1.6-17.2-4.5-23.5-6.4-6.3-1.8-17.1-4.8-24-6.6-6.9-1.7-17.2-5.1-23-7.4-5.8-2.3-12.3-5.1-14.5-6.3-2.2-1.1-11.2-5.1-20-8.9-8.8-3.9-24.8-11.6-35.5-17.3-10.7-5.6-24.2-13-30-16.3-5.8-3.3-19.1-11.8-29.5-19-10.4-7.1-24.9-17.3-32.2-22.6-7.2-5.3-18-13.7-24-18.8-5.9-5-23.2-21.7-38.4-37-15.1-15.3-32-33-37.5-39.4-5.4-6.4-13.5-16.3-18-22-4.5-5.7-14.6-19.6-22.5-30.9-7.9-11.3-19.3-28.6-25.2-38.5-5.9-9.9-13.5-23.4-16.9-30-3.4-6.6-7.8-16.5-9.9-22-2-5.5-6.4-15.8-9.7-23-3.3-7.2-7.3-16.8-9-21.5-1.7-4.7-6.5-19.3-10.7-32.5-4.2-13.2-8.9-29.6-10.5-36.5-1.6-6.9-4-16.3-5.3-21-1.4-4.7-3.3-14.8-4.2-22.5-0.9-7.7-2.9-21-4.5-29.5-1.6-8.5-3.5-20.7-4.2-27-0.7-7.3-1.2-28.3-1.2-57.5-0.1-31.5 0.3-49.6 1.2-57.5 0.7-6.3 2.4-17.4 3.8-24.5 1.4-7.1 3.4-19.1 4.5-26.5 1-7.4 4-22.3 6.5-33 2.5-10.7 6.5-25.8 8.9-33.5 2.4-7.7 6.9-22.3 10-32.5 3.1-10.2 7.6-23.2 9.9-29 2.4-5.8 6.9-15.7 10.1-22 3.2-6.3 8.8-18 12.4-26 3.7-8 11.8-23.3 18-34 6.3-10.7 14.3-24 17.9-29.5 3.5-5.5 13.3-19.2 21.6-30.4 8.3-11.2 18.1-24.3 21.9-29 3.7-4.7 16.3-18.7 28-30.9 11.6-12.3 26.1-27 32.2-32.6 6.1-5.6 14.1-12.9 18-16.1 3.9-3.3 12.9-10.2 20-15.5 7.1-5.3 21.1-15.2 31-22 9.9-6.8 22.9-15.7 29-19.8 6.7-4.5 24.2-14 44.5-24.2 18.4-9.2 38.7-18.8 45-21.3 6.3-2.4 23-8.3 37-13.1 14-4.7 34.3-10.8 45-13.6 10.7-2.7 22.9-5.9 27-7 4.1-1.1 14.2-2.9 22.5-4.1 8.2-1.1 19.3-2.9 24.5-4 5.2-1.1 12.4-2.4 16-3 3.6-0.6 16.9-1.4 29.5-1.8 12.6-0.4 30.9-0.8 40.5-0.9zm-45.5 86.8c-5.5 0.4-16.1 1.9-23.5 3.3-7.4 1.5-20.5 3.5-29 4.7-9.8 1.3-23.2 4.1-36.5 7.6-11.5 3-30 8.4-41 12-17.8 5.7-24.1 8.4-56.5 24.2-25.1 12.2-41.1 20.8-51.3 27.3-8.2 5.1-21.4 13.7-29.5 19-8.1 5.3-20.6 14.4-27.7 20.1-7.1 5.8-20 16.8-28.5 24.5-8.5 7.7-21.6 20.3-29 27.9-7.4 7.6-18 19.1-23.4 25.4-5.4 6.3-14.9 18.2-21.1 26.5-6.2 8.2-15.1 20.9-19.8 28-4.6 7.1-12.1 19.5-16.6 27.5-4.4 8-11.7 22.4-16.2 32-4.5 9.6-10.8 23.1-13.9 30-3.2 6.9-7.7 17.9-10 24.5-2.3 6.6-6.3 19.9-9 29.5-2.7 9.6-6.4 23.1-8.3 30-1.9 6.9-4.2 17.9-5.1 24.5-0.9 6.6-2.8 19.6-4.1 29-1.4 9.4-3 22-3.7 28-0.9 7.2-1.3 24.5-1.3 50 0.1 25.1 0.5 42.4 1.3 48.5 0.7 5.2 2.8 17.8 4.7 28 1.9 10.2 4.8 26.4 6.6 36 1.7 9.6 4.2 21.8 5.5 27 1.3 5.2 6.3 20.7 11 34.5 4.7 13.7 11.7 32 15.6 40.5 3.8 8.5 11.8 25 17.7 36.5 6 11.5 13.2 25 16.1 30 2.9 5 8.7 14.2 12.9 20.5 4.1 6.3 11.4 16.7 16.2 23 4.8 6.3 12.9 16.5 18.2 22.5 5.2 6 22.9 24.5 39.3 41.1 18.5 18.5 33.7 33 39.9 37.7 5.5 4.2 19.2 14.2 30.5 22.1 11.3 8 25 17.2 30.5 20.4 5.5 3.3 17.6 10.2 27 15.5 9.4 5.3 24.2 12.8 33 16.6 8.8 3.9 27.9 11.3 42.5 16.5 14.6 5.1 34.8 11.7 45 14.5 10.2 2.7 23.9 5.8 30.5 6.6 6.6 0.9 18.3 3 26 4.6 7.7 1.7 19.4 3.4 26 3.9 6.6 0.5 32.7 1 58 1 25.3 0 51.3-0.5 57.7-1 6.5-0.6 24.1-3.5 39-6.5 15-3 34.7-7.3 43.8-9.6 9.1-2.2 22.8-6.1 30.5-8.6 7.7-2.5 18.3-6.2 23.5-8.3 5.2-2.1 19.2-8.2 31-13.5 11.8-5.3 26.2-12.2 32-15.3 5.8-3.1 16.1-8.9 23-13 6.9-4.1 17-10.4 22.5-14 5.5-3.5 16.7-11.5 25-17.7 8.2-6.2 20.8-16.1 28-22.1 7.2-6 21.5-19.2 31.8-29.4 10.4-10.2 23.9-24.3 30-31.4 6.2-7 15-17.8 19.6-24 4.6-6.1 12-16.5 16.6-23.1 4.5-6.6 15.4-24.2 24.1-39 8.7-14.8 17.8-31.5 20.3-37 2.5-5.5 8.9-21.5 14.2-35.5 5.3-14 11.5-30.5 13.9-36.5 2.3-6 5.3-15.7 6.6-21.5 1.3-5.8 3.7-18.4 5.4-28 1.7-9.6 4.4-23.1 6-30 1.6-6.9 3.4-16.3 4-21 0.6-5 1-31.6 1-64.5 0-32.2-0.4-60.5-1-66.5-0.6-5.8-2.6-17.5-4.5-26-1.8-8.5-4.3-20.5-5.5-26.5-1.2-6-3.7-17.1-5.6-24.5-1.8-7.4-4.7-17.5-6.2-22.5-1.6-5-7.2-20.5-12.5-34.5-5.3-14-11.8-30.2-14.5-36-2.7-5.8-7.9-16.1-11.7-23-3.7-6.9-9.7-17.5-13.3-23.5-3.6-6.1-9.7-15.7-13.5-21.5-3.9-5.8-11.4-16.4-16.7-23.5-5.4-7.1-15.5-19.7-22.6-28-7.1-8.2-17.6-19.7-23.4-25.6-5.8-5.8-19-18.5-29.5-28.2-10.5-9.7-24.4-22-31-27.2-6.6-5.3-17.5-13.5-24.2-18.3-6.8-4.8-17.3-11.8-23.5-15.6-6.2-3.8-17.4-10-24.8-13.9-7.4-3.8-19.1-10-26-13.8-6.9-3.7-16.3-8.4-21-10.4-4.7-2-18.2-7-30-11-11.8-4-25.3-8.8-30-10.5-4.7-1.7-12.8-4.3-18-5.6-5.2-1.4-19.4-4.3-31.5-6.4-12.1-2.2-26.5-4.9-32-6-5.5-1.1-14.7-2.5-20.5-3-5.8-0.6-29.6-1.2-53-1.5-23.4-0.2-47 0-52.5 0.5zm46.5 133.1c1.4 0 5.3 0.4 8.7 0.9 3.5 0.6 8.4 2 11 3.2 2.7 1.2 7.3 4.7 10.4 7.8 3 3 6.9 8 8.6 11 1.8 3 4 8.6 4.9 12.5 1.6 6.5 1.7 19.8 1.9 173.5 0.1 131.1 0.4 167.8 1.4 172.5 0.7 3.3-0.5 8.7 0.8 10.9 1.2 2.2 7 4.7 9.4 6.7 2.4 2 10.7 7.2 18.4 11.6 7.7 4.4 21.2 12 30 16.8 8.8 4.8 29.3 16.3 45.5 25.5 16.2 9.2 34.5 19.3 40.5 22.5 6 3.2 18.1 10.1 26.9 15.4 10.4 6.3 18.4 12 23.3 16.6 5.3 5 8.4 8.9 10.7 13.5 1.8 3.6 3.6 9 4 12 0.5 3.4 0.3 7.8-0.4 11.5-0.7 3.3-2.6 8.7-4.4 11.9-1.7 3.2-5.8 8.4-9.1 11.5q-6 5.7-12 8c-3.3 1.3-8.9 2.6-12.5 2.8-3.6 0.3-9 0-12-0.6-3-0.7-8.9-2.6-13-4.2-4.1-1.7-18.3-8.9-31.5-16.1-13.2-7.2-35.5-19.4-49.5-27.1-14-7.7-30.7-17.2-37-21-6.3-3.8-18.7-10.8-27.5-15.5-8.8-4.7-21.4-11.9-28-16-6.6-4.1-18.5-10.9-26.5-15.1-8-4.1-17.4-9.3-21-11.6-3.6-2.2-9-6.9-10.5-10.3l-2.1-25c-0.4-14.7-0.1-104.8 0.5-200.2 0.7-100.4 1.6-177.1 2.1-182 0.6-4.9 2-10.6 3.4-13.5 1.2-2.8 4.3-7 6.7-9.4 2.4-2.4 6.9-5.5 9.9-6.9 3-1.4 7.7-2.8 10.5-3.2 2.7-0.4 6.1-0.8 7.5-0.9z"/>
</svg>