<svg version="1.2" xmlns="http://www.w3.org/2000/svg" viewBox="0 0 512 318" width="512" height="318">
	<title>Nouveau projet</title>
	<style>
		.s0 { fill: #00386b } 
	</style>
	<path id="Remplissage couleur unie 1" class="s0" d="m168.5 0c1.6 0 4.8 0.8 7 1.8 2.3 1 4.9 3.3 6.2 5.3 1.1 1.9 27.8 52 59.3 111.4 31.5 59.4 58.3 110 59.6 112.5 1.3 2.5 3.8 8.3 5.5 13 2.5 6.7 3.3 10.6 3.6 18.5 0.5 8.9 0.2 10.8-2.1 17.7-1.4 4.3-4.1 10.2-5.9 13-1.9 2.9-6 7.7-9.3 10.6-3.2 3-8.6 6.7-11.9 8.3-3.3 1.6-9.1 3.6-13 4.4-3.9 0.8-9 1.5-11.5 1.5-2.5 0-7.6-0.7-11.5-1.5-3.9-0.8-9.9-2.9-13.5-4.7-3.6-1.8-9.2-5.8-12.5-8.9-3.5-3.2-7.4-8.3-9.4-12-1.9-3.5-4.5-9.3-5.8-12.9-1.3-3.6-12.6-61.8-25.8-132.5-12.9-69.3-23.5-128-23.5-130.5 0-3.1 0.7-5.6 2.2-8 1.3-1.9 3.9-4.3 5.8-5.2 1.9-1 4.9-1.8 6.5-1.8zm96.5 17.6c5.2 0.3 14 0.9 19.5 1.5 5.5 0.6 15.6 2.1 22.5 3.5 6.9 1.4 17.2 3.9 23 5.6 5.8 1.6 15 4.8 20.5 7 5.5 2.2 16.1 7.1 23.5 10.8 7.4 3.8 18.5 10.1 24.5 14.2 6.1 4 14.6 10.2 19 13.7 4.4 3.6 12.7 11 18.4 16.5 5.7 5.6 14.2 14.8 19 20.6 4.7 5.7 11.9 15.4 15.9 21.5 4 6 10.9 18.2 15.2 27 4.4 8.8 9.5 20.7 11.5 26.5 2 5.8 4.9 15.4 6.5 21.5 1.6 6.1 3.8 17.1 4.9 24.5 1.1 7.4 2.2 19.8 2.3 27.5 0.2 9.7-0.1 14.7-1 16.2-0.6 1.3-2.9 3.5-4.9 5-2.9 2.2-4.7 2.8-8.9 2.8-3.8 0-6-0.6-8.1-2.1-1.5-1.2-3.7-3.4-4.8-4.9-1.4-1.8-2.1-4.6-2.3-8.8-0.1-3.4-0.7-11.8-1.3-18.7-0.6-6.9-1.9-16.8-2.9-22-1.1-5.2-3.1-13.6-4.5-18.5-1.5-4.9-4.4-13.5-6.5-19-2.2-5.5-6.2-14.5-9.1-20-2.8-5.5-7.6-13.8-10.6-18.5-3.1-4.7-8.3-12.1-11.6-16.5-3.4-4.4-11.5-13.4-18.1-20.1-6.7-6.6-15.2-14.6-19.1-17.6-3.9-3-11.5-8.4-17-12-5.5-3.6-13.8-8.6-18.5-11.1-4.7-2.5-13.5-6.6-19.5-9.1-6-2.4-16.6-6.1-23.5-8.1-6.9-2-17.7-4.5-24-5.6-6.3-1.1-18.5-2.4-27-2.8-8.5-0.5-16.6-1.3-18-1.9-1.4-0.5-3.9-2.4-5.5-4.2-2.2-2.4-3.1-4.3-3.4-7.8-0.2-3.2 0.2-5.9 1.5-8.5 1.1-2.2 3-4.6 4.4-5.5 1.4-0.9 3.9-1.9 5.5-2.3 1.6-0.4 7.3-0.5 12.5-0.3zm-160 52.4c2.7 0 5.8 0.8 7.8 2 1.7 1.1 4.1 3.5 5.2 5.2 1.2 2.1 2 5 2 7.8-0.1 2.6-0.8 5.7-2 7.5-1 1.7-4.7 5.3-8.2 8.1-3.5 2.9-11.1 10.2-17 16.3-6 6.1-14.2 15.7-18.4 21.3-4.2 5.7-10.2 14.6-13.2 19.8-3.1 5.2-7.6 13.8-10 19-2.5 5.2-6.4 15.4-8.8 22.5-2.4 7.1-5.4 18.6-6.8 25.5-1.4 6.9-3 17.2-3.6 23-0.5 5.8-1 13.3-1 16.7 0 3.5-0.6 7.8-1.3 9.5-0.8 1.8-2.7 4.5-4.3 5.9-1.6 1.4-4.8 2.9-7.4 3.3-3.7 0.6-5.3 0.3-8.9-1.6-2.5-1.3-5.4-3.6-6.5-5.1-1.9-2.6-2.1-4.1-1.9-15.5 0.2-7 0.8-17 1.4-22.2 0.6-5.2 2.2-14.9 3.6-21.5 1.4-6.6 4-16.7 5.8-22.5 1.8-5.8 4.7-14.1 6.5-18.5 1.7-4.4 5.6-12.8 8.6-18.8 3-5.9 8-14.9 11.1-20 3.2-5 9-13.5 12.9-18.7 3.9-5.2 10.9-13.6 15.5-18.5 4.6-4.9 12.2-12.5 16.9-16.8 4.7-4.3 10.5-9.1 13-10.8 3.3-2.1 5.6-2.9 9-2.9z"/>
</svg>