<svg version="1.2" xmlns="http://www.w3.org/2000/svg" viewBox="0 0 798 797" width="798" height="797">
	<title>Nouveau projet</title>
	<style>
		.s0 { fill: #00386b } 
	</style>
	<path id="Remplissage couleur unie 1" fill-rule="evenodd" class="s0" d="m398 0.1c151.7-0.1 243.8 0.3 246 0.9 1.9 0.5 4.7 2.2 6.3 3.7 2.1 2.2 3 4.4 3.8 9.8 0.7 4.7 0.9 20.1 0.4 47.5-0.6 35.7-0.5 40.9 0.9 44.3 0.9 2 2.8 4.5 4.3 5.5 2.5 1.6 7.9 1.7 65.3 2.2 57 0.5 62.8 0.7 65.8 2.3 1.8 0.9 4 3.3 5 5.5 1.5 3.2 1.7 6.9 1.6 29.7 0 14.3-0.6 33.2-1.3 42-0.7 8.8-2.1 22.5-3.2 30.5-1.1 8-3.1 19.9-4.5 26.5-1.3 6.6-4 17.9-5.9 25-1.8 7.1-5.5 19.1-8.1 26.5-2.5 7.4-6.9 18.7-9.6 25-2.7 6.3-8.2 17.8-12.2 25.5-4 7.7-10.7 19.4-14.8 26-4.2 6.6-11 16.5-15 22-4.1 5.5-11.5 14.7-16.5 20.5-5 5.8-15.1 16.4-22.4 23.5-7.4 7.1-18.4 17-24.4 21.8-6.1 4.9-16.9 12.8-24 17.6-7.1 4.9-18 11.7-24 15.2-6 3.4-17.3 9.3-25 13-7.7 3.7-20.5 9.2-28.5 12.2-8 3.1-20.6 7.4-28 9.7-7.4 2.2-15.7 5.2-18.5 6.5-2.7 1.4-9.7 6.8-15.5 12.1-5.8 5.2-13.6 12-17.5 14.9-3.9 2.9-10.7 7.6-15.2 10.4-4.6 2.8-13.5 7.6-19.8 10.6-9.6 4.6-11.9 6.1-13.7 9.3-2.2 3.6-2.3 4.7-2.6 31.2-0.3 21.9 0 29 1.2 35 0.9 4.1 3.1 10.6 5 14.5 1.9 3.9 6 10 9 13.8 3.1 3.7 9.1 9.5 13.4 12.8 4.2 3.4 10.6 7.8 14.2 9.7 3.6 2 10.6 5.4 15.5 7.5 4.9 2.2 14.2 5.4 20.5 7.2 6.3 1.8 16.2 4.2 22 5.3 5.8 1.1 16.4 2.8 23.5 3.7 7.3 1 24.6 2 39.5 2.4 22.9 0.5 27 0.8 29.3 2.4 1.5 0.9 3.5 2.9 4.5 4.4 1.5 2.3 1.7 5.3 1.7 21.4 0 17.4-0.2 19-2.1 21.6-1.1 1.5-3.6 3.6-5.5 4.5-3.2 1.7-15.8 1.8-219.9 1.8-204.1 0-216.7-0.1-219.9-1.8-1.9-0.9-4.4-3-5.5-4.5-1.9-2.6-2.1-4.2-2.1-21 0-16.5 0.2-18.5 2.1-21.7 1.1-1.9 3.3-4.2 5-5 2.2-1.1 9.1-1.6 27.9-2.1 13.8-0.4 30.9-1.5 38-2.4 7.1-0.9 17.5-2.5 23-3.5 5.5-1.1 14.7-3.3 20.5-4.9 5.8-1.6 15-4.8 20.5-7.1 5.5-2.2 13.6-6.2 18-8.8 4.4-2.6 11.3-7.4 15.4-10.7 4.1-3.3 9.8-8.9 12.7-12.5 2.8-3.6 6.8-9.4 8.7-13 1.9-3.6 4.3-9 5.3-12 1.7-4.9 1.9-8.9 1.9-35 0-28.8-0.1-29.6-2.2-33.3-2-3.1-4.3-4.7-15.5-10.1-7.3-3.6-16.9-8.8-21.3-11.7-4.4-2.8-10.7-7.2-14-9.8-3.3-2.5-10.5-8.7-16-13.6-5.5-5-12-10.3-14.5-11.7-2.5-1.5-10.6-4.5-18-6.7-7.4-2.3-19.4-6.3-26.5-9-7.1-2.6-18.6-7.4-25.5-10.5-6.9-3.1-17.4-8.4-23.5-11.8-6-3.3-15.4-8.8-20.8-12.2-5.4-3.3-15.6-10.4-22.6-15.6-7-5.2-16.9-13.2-22.1-17.6-5.2-4.5-15.1-14-22-21-6.9-7.1-16.2-17.4-20.6-22.9-4.4-5.5-11.1-14.3-14.8-19.5-3.8-5.2-10.4-15.5-14.7-22.8-4.3-7.2-10.3-18-13.3-24-3-5.9-7.6-16.1-10.4-22.7-2.8-6.6-6.9-17.4-9.2-24-2.3-6.6-5.7-17.9-7.5-25-1.9-7.1-4.6-18.4-5.9-25-1.4-6.6-3.4-18.5-4.5-26.5-1.1-8-2.6-21.3-3.2-29.5-0.7-8.3-1.3-27.6-1.3-43-0.1-25.1 0.1-28.4 1.7-30.8 0.9-1.5 2.9-3.5 4.4-4.5 2.5-1.6 7.9-1.7 65.3-2.2 57.4-0.5 62.8-0.6 65.3-2.3 1.5-0.9 3.3-2.7 4-4 0.9-1.7 1.2-13.5 1.2-49.2 0-35.5 0.3-47.7 1.3-49.8 0.6-1.5 2.2-3.6 3.5-4.7 1.2-1.2 3.6-2.5 5.2-3 1.7-0.4 112.1-0.9 245.5-0.9zm-331 171.5c-0.8 0.3-2.6 1.1-3.9 1.7-1.3 0.7-3 2.6-3.9 4.2-0.9 1.9-1.4 5.6-1.4 10 0.1 3.9 0.8 12.9 1.7 20 0.8 7.2 2.2 17.1 3.1 22 0.8 5 3 15.3 4.9 23 1.8 7.7 4.9 18.9 6.9 25 1.9 6.1 5.8 16.6 8.6 23.5 2.8 6.9 7.9 17.9 11.4 24.5 3.4 6.6 9 16.5 12.5 22 3.4 5.5 8.8 13.6 11.9 17.9 3.2 4.3 9.8 12.7 14.8 18.5 5 5.8 14 15.3 20 21.1 6 5.8 15.2 14 20.4 18.2 5.2 4.2 14.7 11.1 21 15.3 6.3 4.2 13.1 8.1 15 8.7 1.9 0.5 4.6 0.8 6 0.6 2.1-0.3 2.5-0.9 2.8-4.3 0.2-3-0.8-6.4-3.9-13-2.2-4.9-6.7-15.1-9.9-22.5-3.1-7.4-8.1-20-11-28-2.9-8-7.7-22.1-10.6-31.5-2.8-9.4-7.7-26.9-10.7-39-3.1-12.1-7.4-31-9.7-42-2.2-11-5.4-27.4-7-36.5-1.6-9.1-3.9-23.5-5-32-1.2-8.8-3-17.3-4.1-19.7-1-2.4-3.1-5.1-4.6-6-2.4-1.6-6.3-1.8-38.3-2-19.5-0.1-36.2 0-37 0.3zm589.1 0.7c-1.9 0.7-4 2.2-4.7 3.3-0.7 1-1.8 3.3-2.4 4.9-0.6 1.7-1.8 8.2-2.6 14.5-0.8 6.3-3 20.5-4.9 31.5-1.9 11-5.3 29-7.5 40-2.3 11-5.9 27.4-8.1 36.5-2.2 9.1-6 23.5-8.4 32-2.4 8.5-7.1 23.4-10.4 33-3.2 9.6-8.2 23.1-10.9 30-2.8 6.9-7.8 18.6-11.1 26-3.4 7.4-6.6 15.2-7.1 17.3-0.7 2.4-0.7 4.4 0 5.7q1 2 4 2c1.6 0 6-1.6 9.8-3.6 3.7-1.9 11.8-7.2 18.1-11.7 6.3-4.5 16.2-12.3 22-17.3 5.8-5 15.1-13.8 20.6-19.5 5.5-5.7 13.4-14.7 17.6-19.9 4.2-5.2 10.6-13.8 14.1-19 3.6-5.2 9.4-14.4 12.9-20.5 3.4-6.1 8.6-15.9 11.5-22 2.8-6.1 7.2-16.4 9.7-23 2.5-6.6 6.2-17.6 8.2-24.5 1.9-6.9 4.9-18.8 6.5-26.5 1.6-7.7 3.8-21.3 4.9-30.2 1.2-9 2.1-19.7 2.1-23.8 0-4.1-0.6-8.7-1.3-10.1-0.6-1.4-2.3-3.3-3.7-4.2-2.2-1.5-6.8-1.7-39-1.9-28-0.2-37.3 0-39.9 1z"/>
</svg>